M48
; DRILL file {KiCad 9.0.1} date 2025-05-14T15:58:20+0800
; FORMAT={-:-/ absolute / metric / decimal}
; #@! TF.CreationDate,2025-05-14T15:58:20+08:00
; #@! TF.GenerationSoftware,Kicad,Pcbnew,9.0.1
; #@! TF.FileFunction,Plated,1,2,PTH
FMAT,2
METRIC
; #@! TA.AperFunction,Plated,PTH,ComponentDrill
T1C0.800
; #@! TA.AperFunction,Plated,PTH,ComponentDrill
T2C1.000
; #@! TA.AperFunction,Plated,PTH,ComponentDrill
T3C1.500
%
G90
G05
T1
X145.252Y-62.94
X145.252Y-65.48
X145.252Y-68.02
X145.252Y-70.56
X145.252Y-73.1
X145.252Y-75.64
X145.252Y-78.18
X145.252Y-80.72
X145.252Y-83.26
X145.252Y-85.8
X145.252Y-88.34
X145.252Y-90.88
X145.252Y-93.42
X145.252Y-95.96
X145.252Y-98.5
X170.652Y-62.94
X170.652Y-65.48
X170.652Y-68.02
X170.652Y-70.56
X170.652Y-73.1
X170.652Y-75.64
X170.652Y-78.18
X170.652Y-80.72
X170.652Y-83.26
X170.652Y-85.8
X170.652Y-88.34
X170.652Y-90.88
X170.652Y-93.42
X170.652Y-95.96
X170.652Y-98.5
X182.4Y-106.5
X184.4Y-106.5
X186.4Y-106.5
T2
X104.0Y-110.0
X104.0Y-124.0
X124.2Y-60.76
X124.2Y-63.3
X124.2Y-70.92
X124.2Y-73.46
X124.2Y-76.0
X124.2Y-88.26
X124.2Y-90.8
X124.2Y-98.42
X124.2Y-100.96
X124.2Y-103.5
X127.0Y-110.0
X127.0Y-112.54
X127.0Y-121.46
X127.0Y-124.0
X129.5Y-75.8
X129.5Y-101.2
X135.519Y-97.853
X135.519Y-105.853
X140.0Y-50.3
X140.0Y-75.7
X140.5Y-94.785
X140.5Y-106.723
X179.5Y-81.5
X189.0Y-57.587
X189.0Y-60.127
X189.0Y-62.667
X189.0Y-65.207
X189.0Y-67.747
X189.0Y-70.287
X189.0Y-72.827
X189.0Y-75.367
X190.0Y-81.5
T3
X180.3Y-106.5
X188.5Y-106.5
T2
G00X180.0Y-101.0
M15
G01X181.0Y-101.0
M16
G05
G00X184.0Y-81.5
M15
G01X185.0Y-81.5
M16
G05
G00X188.5Y-101.0
M15
G01X189.5Y-101.0
M16
G05
M30
