%TF.GenerationSoftware,KiCad,Pcbnew,9.0.1*%
%TF.CreationDate,2025-05-14T15:59:23+08:00*%
%TF.ProjectId,emgPCB,656d6750-4342-42e6-9b69-6361645f7063,rev?*%
%TF.SameCoordinates,Original*%
%TF.FileFunction,Copper,L1,Top*%
%TF.FilePolarity,Positive*%
%FSLAX46Y46*%
G04 Gerber Fmt 4.6, Leading zero omitted, Abs format (unit mm)*
G04 Created by KiCad (PCBNEW 9.0.1) date 2025-05-14 15:59:23*
%MOMM*%
%LPD*%
G01*
G04 APERTURE LIST*
G04 Aperture macros list*
%AMRoundRect*
0 Rectangle with rounded corners*
0 $1 Rounding radius*
0 $2 $3 $4 $5 $6 $7 $8 $9 X,Y pos of 4 corners*
0 Add a 4 corners polygon primitive as box body*
4,1,4,$2,$3,$4,$5,$6,$7,$8,$9,$2,$3,0*
0 Add four circle primitives for the rounded corners*
1,1,$1+$1,$2,$3*
1,1,$1+$1,$4,$5*
1,1,$1+$1,$6,$7*
1,1,$1+$1,$8,$9*
0 Add four rect primitives between the rounded corners*
20,1,$1+$1,$2,$3,$4,$5,0*
20,1,$1+$1,$4,$5,$6,$7,0*
20,1,$1+$1,$6,$7,$8,$9,0*
20,1,$1+$1,$8,$9,$2,$3,0*%
G04 Aperture macros list end*
%TA.AperFunction,ComponentPad*%
%ADD10RoundRect,0.799900X0.150100X-0.700100X0.150100X0.700100X-0.150100X0.700100X-0.150100X-0.700100X0*%
%TD*%
%TA.AperFunction,ComponentPad*%
%ADD11RoundRect,0.799900X-0.150100X0.700100X-0.150100X-0.700100X0.150100X-0.700100X0.150100X0.700100X0*%
%TD*%
%TA.AperFunction,ComponentPad*%
%ADD12O,1.900000X1.524000*%
%TD*%
%TA.AperFunction,ComponentPad*%
%ADD13O,2.200000X3.500000*%
%TD*%
%TA.AperFunction,ComponentPad*%
%ADD14R,1.500000X2.500000*%
%TD*%
%TA.AperFunction,ComponentPad*%
%ADD15O,1.500000X2.500000*%
%TD*%
%TA.AperFunction,ComponentPad*%
%ADD16O,2.905000X1.905000*%
%TD*%
%TA.AperFunction,ComponentPad*%
%ADD17C,1.905000*%
%TD*%
%TA.AperFunction,ComponentPad*%
%ADD18O,2.952500X1.905000*%
%TD*%
%TA.AperFunction,ComponentPad*%
%ADD19C,2.000000*%
%TD*%
%TA.AperFunction,ComponentPad*%
%ADD20O,3.000000X1.500000*%
%TD*%
%TA.AperFunction,Conductor*%
%ADD21C,0.200000*%
%TD*%
G04 APERTURE END LIST*
D10*
%TO.P,R4,2*%
%TO.N,Net-(BC1-VOUT-)*%
X140000000Y-50300000D03*
%TO.P,R4,1*%
%TO.N,Net-(EMG_v2--Vs)*%
X140000000Y-75700000D03*
%TD*%
D11*
%TO.P,R3,1*%
%TO.N,Net-(EMG_v2-+Vs)*%
X129500000Y-75800000D03*
%TO.P,R3,2*%
%TO.N,Net-(BC1-VOUT+)*%
X129500000Y-101200000D03*
%TD*%
%TO.P,R1,1*%
%TO.N,Net-(EMG_v1--Vs)*%
X140500000Y-94785000D03*
%TO.P,R1,2*%
%TO.N,Net-(BC1-VOUT-)*%
X140500000Y-106723000D03*
%TD*%
D10*
%TO.P,R2,1*%
%TO.N,Net-(BC1-GND)*%
X135519500Y-105853000D03*
%TO.P,R2,2*%
%TO.N,Net-(EMG_v1-GND-Pad1)*%
X135519500Y-97853000D03*
%TD*%
D12*
%TO.P,U1,1,VIN*%
%TO.N,Net-(BC1-VOUT+)*%
X145252460Y-98500000D03*
%TO.P,U1,16,3.3v*%
%TO.N,unconnected-(U1-3.3v-Pad16)*%
X170652460Y-98500000D03*
%TO.P,U1,2,GND*%
%TO.N,Net-(EMG_v1-GND-Pad1)*%
X145252460Y-95960000D03*
%TO.P,U1,17,GND*%
%TO.N,unconnected-(U1-GND-Pad17)*%
X170652460Y-95960000D03*
%TO.P,U1,3,GPIO13*%
%TO.N,unconnected-(U1-GPIO13-Pad3)*%
X145252460Y-93420000D03*
%TO.P,U1,18,GPIO15*%
%TO.N,unconnected-(U1-GPIO15-Pad18)*%
X170652460Y-93420000D03*
%TO.P,U1,4,GPIO12*%
%TO.N,unconnected-(U1-GPIO12-Pad4)*%
X145252460Y-90880000D03*
%TO.P,U1,19,GPIO2*%
%TO.N,unconnected-(U1-GPIO2-Pad19)*%
X170652460Y-90880000D03*
%TO.P,U1,5,GPIO14*%
%TO.N,unconnected-(U1-GPIO14-Pad5)*%
X145252460Y-88340000D03*
%TO.P,U1,20,GPIO4*%
%TO.N,unconnected-(U1-GPIO4-Pad20)*%
X170652460Y-88340000D03*
%TO.P,U1,6,GPIO27*%
%TO.N,unconnected-(U1-GPIO27-Pad6)*%
X145252460Y-85800000D03*
%TO.P,U1,21,GPIO16*%
%TO.N,unconnected-(U1-GPIO16-Pad21)*%
X170652460Y-85800000D03*
%TO.P,U1,7,GPIO26*%
%TO.N,unconnected-(U1-GPIO26-Pad7)*%
X145252460Y-83260000D03*
%TO.P,U1,22,GPIO17*%
%TO.N,unconnected-(U1-GPIO17-Pad22)*%
X170652460Y-83260000D03*
%TO.P,U1,8,GPIO25*%
%TO.N,unconnected-(U1-GPIO25-Pad8)*%
X145252460Y-80720000D03*
%TO.P,U1,23,GPIO5*%
%TO.N,unconnected-(U1-GPIO5-Pad23)*%
X170652460Y-80720000D03*
%TO.P,U1,9,GPIO33*%
%TO.N,unconnected-(U1-GPIO33-Pad9)*%
X145252460Y-78180000D03*
%TO.P,U1,24,GPIO18*%
%TO.N,unconnected-(U1-GPIO18-Pad24)*%
X170652460Y-78180000D03*
%TO.P,U1,10,GPIO32*%
%TO.N,Net-(EMG_v1-SIG)*%
X145252460Y-75640000D03*
%TO.P,U1,25,GPIO19*%
%TO.N,unconnected-(U1-GPIO19-Pad25)*%
X170652460Y-75640000D03*
%TO.P,U1,11,GPIO35*%
%TO.N,unconnected-(U1-GPIO35-Pad11)*%
X145252460Y-73100000D03*
%TO.P,U1,26,GPIO21*%
%TO.N,Net-(U1-GPIO21)*%
X170652460Y-73100000D03*
%TO.P,U1,12,GPIO34*%
%TO.N,Net-(EMG_v2-SIG)*%
X145252460Y-70560000D03*
%TO.P,U1,27,GPIO3*%
%TO.N,unconnected-(U1-GPIO3-Pad27)*%
X170652460Y-70560000D03*
%TO.P,U1,13,GPIO39*%
%TO.N,unconnected-(U1-GPIO39-Pad13)*%
X145252460Y-68020000D03*
%TO.P,U1,28,GPIO1*%
%TO.N,unconnected-(U1-GPIO1-Pad28)*%
X170652460Y-68020000D03*
%TO.P,U1,14,GPIO36*%
%TO.N,unconnected-(U1-GPIO36-Pad14)*%
X145252460Y-65480000D03*
%TO.P,U1,29,GPIO22*%
%TO.N,Net-(U1-GPIO22)*%
X170652460Y-65480000D03*
%TO.P,U1,15,EN*%
%TO.N,unconnected-(U1-EN-Pad15)*%
X145252460Y-62940000D03*
%TO.P,U1,30,GPIO23*%
%TO.N,unconnected-(U1-GPIO23-Pad30)*%
X170652460Y-62940000D03*
%TD*%
D13*
%TO.P,SW1,*%
%TO.N,*%
X180300000Y-106500000D03*
X188500000Y-106500000D03*
D14*
%TO.P,SW1,1,A*%
%TO.N,Net-(SW1A-A)*%
X182400000Y-106500000D03*
D15*
%TO.P,SW1,2,B*%
%TO.N,Net-(BC1-VIN+)*%
X184400000Y-106500000D03*
%TO.P,SW1,3*%
%TO.N,N/C*%
X186400000Y-106500000D03*
%TD*%
D16*
%TO.P,BC1,1,VIN+*%
%TO.N,Net-(BC1-VIN+)*%
X180500000Y-101000000D03*
%TO.P,BC1,2,VIN-*%
%TO.N,Net-(BC1-VIN-)*%
X189000000Y-101000000D03*
D17*
%TO.P,BC1,3,VOUT+*%
%TO.N,Net-(BC1-VOUT+)*%
X179500000Y-81500000D03*
%TO.P,BC1,4,VOUT-*%
%TO.N,Net-(BC1-VOUT-)*%
X190000000Y-81500000D03*
D18*
%TO.P,BC1,5,GND*%
%TO.N,Net-(BC1-GND)*%
X184523750Y-81500000D03*
%TD*%
D17*
%TO.P,EMG_v2,1,GND*%
%TO.N,Net-(EMG_v1-GND-Pad1)*%
X124200500Y-60759800D03*
%TO.P,EMG_v2,2,SIG*%
%TO.N,Net-(EMG_v2-SIG)*%
X124200500Y-63299800D03*
%TO.P,EMG_v2,3,-Vs*%
%TO.N,Net-(EMG_v2--Vs)*%
X124200500Y-70919800D03*
%TO.P,EMG_v2,4,GND*%
%TO.N,Net-(EMG_v1-GND-Pad1)*%
X124200500Y-73459800D03*
%TO.P,EMG_v2,5,+Vs*%
%TO.N,Net-(EMG_v2-+Vs)*%
X124200500Y-75999800D03*
%TD*%
%TO.P,EMG_v1,1,GND*%
%TO.N,Net-(EMG_v1-GND-Pad1)*%
X124200500Y-88259800D03*
%TO.P,EMG_v1,2,SIG*%
%TO.N,Net-(EMG_v1-SIG)*%
X124200500Y-90799800D03*
%TO.P,EMG_v1,3,-Vs*%
%TO.N,Net-(EMG_v1--Vs)*%
X124200500Y-98419800D03*
%TO.P,EMG_v1,4,GND*%
%TO.N,Net-(EMG_v1-GND-Pad1)*%
X124200500Y-100959800D03*
%TO.P,EMG_v1,5,+Vs*%
%TO.N,Net-(BC1-VOUT+)*%
X124200500Y-103499800D03*
%TD*%
D19*
%TO.P,TP4056_1,4,BAT-*%
%TO.N,Net-(BT1--)*%
X127000000Y-121460000D03*
%TO.P,TP4056_1,3,BAT+*%
%TO.N,Net-(BT1-+)*%
X127000000Y-112540000D03*
%TO.P,TP4056_1,6,OUT-*%
%TO.N,Net-(BC1-VIN-)*%
X127000000Y-124000000D03*
%TO.P,TP4056_1,5,OUT+*%
%TO.N,Net-(SW1A-A)*%
X127000000Y-110000000D03*
%TO.P,TP4056_1,2,IN-*%
%TO.N,unconnected-(TP4056_1-IN--Pad2)*%
X104000000Y-124000000D03*
%TO.P,TP4056_1,1,IN+*%
%TO.N,unconnected-(TP4056_1-IN+-Pad1)*%
X104000000Y-110000000D03*
%TD*%
D20*
%TO.P,ACC1,AD0,AD0*%
%TO.N,unconnected-(ACC1-PadAD0)*%
X189000000Y-60127400D03*
%TO.P,ACC1,GND,GND*%
%TO.N,Net-(BC1-GND)*%
X189000000Y-72827400D03*
%TO.P,ACC1,INT,INT*%
%TO.N,unconnected-(ACC1-PadINT)*%
X189000000Y-57587400D03*
%TO.P,ACC1,SCL,SCL*%
%TO.N,Net-(U1-GPIO22)*%
X189000000Y-70287400D03*
%TO.P,ACC1,SDA,SDA*%
%TO.N,Net-(U1-GPIO21)*%
X189000000Y-67747400D03*
%TO.P,ACC1,VCC,VCC*%
%TO.N,Net-(BC1-VOUT+)*%
X189000000Y-75367400D03*
%TO.P,ACC1,XCL,XCL*%
%TO.N,unconnected-(ACC1-PadXCL)*%
X189000000Y-62667400D03*
%TO.P,ACC1,XDA,XDA*%
%TO.N,unconnected-(ACC1-PadXDA)*%
X189000000Y-65207400D03*
%TD*%
D21*
%TO.N,Net-(EMG_v1-GND-Pad1)*%
X127000000Y-101000000D02*
X126959800Y-100959800D01*
X126959800Y-100959800D02*
X124200500Y-100959800D01*
X127500000Y-101000000D02*
X127000000Y-101000000D01*
X128500000Y-99000000D02*
X127500000Y-100000000D01*
X134372500Y-99000000D02*
X128500000Y-99000000D01*
X127500000Y-100000000D02*
X127500000Y-101000000D01*
X135519500Y-97853000D02*
X134372500Y-99000000D01*
%TO.N,Net-(BC1-VOUT-)*%
X195000000Y-69000000D02*
X195000000Y-52500000D01*
X192500000Y-71500000D02*
X195000000Y-69000000D01*
X192500000Y-79500000D02*
X192500000Y-71500000D01*
X190500000Y-81500000D02*
X192500000Y-79500000D01*
X190000000Y-81500000D02*
X190500000Y-81500000D01*
X195000000Y-52500000D02*
X138000000Y-52500000D01*
%TO.N,Net-(BC1-VOUT+)*%
X174000000Y-81500000D02*
X179500000Y-81500000D01*
X179500000Y-80000000D02*
X179500000Y-81500000D01*
X181000000Y-78500000D02*
X179500000Y-80000000D01*
X189000000Y-78500000D02*
X181000000Y-78500000D01*
X189000000Y-75367400D02*
X189000000Y-78500000D01*
%TO.N,Net-(BC1-GND)*%
X186500000Y-79500000D02*
X184500000Y-81500000D01*
X191500000Y-79500000D02*
X186500000Y-79500000D01*
%TO.N,Net-(BC1-VIN+)*%
X180500000Y-102500000D02*
X180500000Y-101000000D01*
X181500000Y-103500000D02*
X180500000Y-102500000D01*
X184400000Y-103500000D02*
X181500000Y-103500000D01*
%TO.N,Net-(BC1-VIN-)*%
X193000000Y-147500000D02*
X193000000Y-105000000D01*
X132500000Y-124000000D02*
X132500000Y-147500000D01*
X132500000Y-147500000D02*
X193000000Y-147500000D01*
X126500000Y-124000000D02*
X132500000Y-124000000D01*
X193000000Y-105000000D02*
X189000000Y-101000000D01*
%TO.N,Net-(BC1-GND)*%
X135519500Y-108480500D02*
X135500000Y-108500000D01*
X135519500Y-105853000D02*
X135519500Y-108480500D01*
X133067100Y-109000000D02*
X130067100Y-106000000D01*
X135500000Y-109000000D02*
X133067100Y-109000000D01*
X130067100Y-106000000D02*
X100457664Y-106000000D01*
X135500000Y-108500000D02*
X135500000Y-109000000D01*
X100457664Y-106000000D02*
X99899500Y-105441836D01*
X99899500Y-105441836D02*
X99899500Y-78500000D01*
%TO.N,Net-(EMG_v1-GND-Pad1)*%
X143540000Y-95960000D02*
X145252460Y-95960000D01*
X141647000Y-97853000D02*
X143540000Y-95960000D01*
X135519500Y-97853000D02*
X141647000Y-97853000D01*
%TO.N,Net-(BC1-VOUT-)*%
X138000000Y-51000000D02*
X138000000Y-52500000D01*
X138000000Y-52500000D02*
X127167600Y-52500000D01*
X138700000Y-50300000D02*
X138000000Y-51000000D01*
X140000000Y-50300000D02*
X138700000Y-50300000D01*
%TO.N,Net-(BC1-GND)*%
X128000000Y-85807338D02*
X128000000Y-78500000D01*
X125547538Y-88259800D02*
X128000000Y-85807338D01*
X128000000Y-78500000D02*
X99899500Y-78500000D01*
X124200500Y-88259800D02*
X125547538Y-88259800D01*
X130000000Y-78500000D02*
X128000000Y-78500000D01*
X131500000Y-77000000D02*
X130000000Y-78500000D01*
X131500000Y-75000000D02*
X131500000Y-77000000D01*
X129959800Y-73459800D02*
X131500000Y-75000000D01*
X124200500Y-73459800D02*
X129959800Y-73459800D01*
%TO.N,Net-(EMG_v2--Vs)*%
X138200000Y-75700000D02*
X133419800Y-70919800D01*
X140000000Y-75700000D02*
X138200000Y-75700000D01*
X133419800Y-70919800D02*
X124200500Y-70919800D01*
%TO.N,Net-(EMG_v2-+Vs)*%
X124400300Y-75800000D02*
X124200500Y-75999800D01*
X129500000Y-75800000D02*
X124400300Y-75800000D01*
%TO.N,Net-(BC1-VOUT+)*%
X129500000Y-101200000D02*
X129500000Y-103499800D01*
X129500000Y-103499800D02*
X142999800Y-103499800D01*
%TO.N,Net-(BC1-VOUT-)*%
X140500000Y-109500000D02*
X140500000Y-106723000D01*
X133000000Y-109500000D02*
X140500000Y-109500000D01*
X130000000Y-106500000D02*
X133000000Y-109500000D01*
X100390564Y-106500000D02*
X130000000Y-106500000D01*
X99498500Y-105607936D02*
X100390564Y-106500000D01*
X99498500Y-51534900D02*
X99498500Y-105607936D01*
X125667600Y-51000000D02*
X100033400Y-51000000D01*
X127167600Y-52500000D02*
X125667600Y-51000000D01*
X100033400Y-51000000D02*
X99498500Y-51534900D01*
%TO.N,Net-(BC1-GND)*%
X191500000Y-71500000D02*
X194000000Y-69000000D01*
X194000000Y-69000000D02*
X194000000Y-53000000D01*
X191500000Y-79500000D02*
X191500000Y-71500000D01*
X194000000Y-53000000D02*
X127100500Y-53000000D01*
%TO.N,Net-(EMG_v1-SIG)*%
X144360000Y-75640000D02*
X145252460Y-75640000D01*
X143000000Y-90000000D02*
X143000000Y-77000000D01*
X142200200Y-90799800D02*
X143000000Y-90000000D01*
X143000000Y-77000000D02*
X144360000Y-75640000D01*
X125100000Y-90799800D02*
X142200200Y-90799800D01*
%TO.N,Net-(EMG_v2-SIG)*%
X143000000Y-64000000D02*
X143000000Y-70000000D01*
X142299800Y-63299800D02*
X143000000Y-64000000D01*
X125100000Y-63299800D02*
X142299800Y-63299800D01*
X143000000Y-70000000D02*
X143560000Y-70560000D01*
X143560000Y-70560000D02*
X145252460Y-70560000D01*
%TO.N,Net-(BC1-VOUT+)*%
X142999800Y-103499800D02*
X143000000Y-103500000D01*
X143000000Y-103500000D02*
X143000000Y-99978460D01*
X125100000Y-103499800D02*
X129500000Y-103499800D01*
X144478460Y-98500000D02*
X145252460Y-98500000D01*
X143000000Y-99978460D02*
X144478460Y-98500000D01*
X143000000Y-107000000D02*
X143000000Y-103500000D01*
X144500000Y-108500000D02*
X143000000Y-107000000D01*
X171500000Y-108500000D02*
X144500000Y-108500000D01*
X173000000Y-107000000D02*
X171500000Y-108500000D01*
X173000000Y-82500000D02*
X173000000Y-107000000D01*
X174000000Y-81500000D02*
X173000000Y-82500000D01*
%TO.N,Net-(U1-GPIO21)*%
X173400000Y-73100000D02*
X170652460Y-73100000D01*
%TO.N,Net-(U1-GPIO22)*%
X172480000Y-65480000D02*
X170652460Y-65480000D01*
%TO.N,Net-(BC1-GND)*%
X99899500Y-51701000D02*
X99899500Y-78500000D01*
X125600500Y-51500000D02*
X100100500Y-51500000D01*
X100100500Y-51500000D02*
X99899500Y-51701000D01*
X127100500Y-53000000D02*
X125600500Y-51500000D01*
X127100500Y-59206838D02*
X127100500Y-53000000D01*
X125547538Y-60759800D02*
X127100500Y-59206838D01*
X124200500Y-60759800D02*
X125547538Y-60759800D01*
%TO.N,Net-(BC1-VIN+)*%
X180400000Y-101100000D02*
X180500000Y-101000000D01*
X184400000Y-106500000D02*
X184400000Y-103500000D01*
%TO.N,Net-(SW1A-A)*%
X181000000Y-110000000D02*
X126500000Y-110000000D01*
X182400000Y-108600000D02*
X181000000Y-110000000D01*
X182400000Y-106500000D02*
X182400000Y-108600000D01*
%TO.N,Net-(U1-GPIO22)*%
X172500000Y-65500000D02*
X172480000Y-65480000D01*
X172500000Y-54500000D02*
X172500000Y-65500000D01*
X173500000Y-53500000D02*
X172500000Y-54500000D01*
X193000000Y-53500000D02*
X173500000Y-53500000D01*
X193000000Y-68500000D02*
X193000000Y-53500000D01*
X191212600Y-70287400D02*
X193000000Y-68500000D01*
X189000000Y-70287400D02*
X191212600Y-70287400D01*
%TO.N,Net-(U1-GPIO21)*%
X173500000Y-73000000D02*
X173400000Y-73100000D01*
X192000000Y-54500000D02*
X173500000Y-54500000D01*
X192000000Y-67500000D02*
X192000000Y-54500000D01*
X173500000Y-54500000D02*
X173500000Y-73000000D01*
X191752600Y-67747400D02*
X192000000Y-67500000D01*
X189000000Y-67747400D02*
X191752600Y-67747400D01*
%TO.N,Net-(BC1-GND)*%
X191500000Y-73000000D02*
X189172600Y-73000000D01*
X191500000Y-79500000D02*
X191500000Y-73000000D01*
%TO.N,Net-(BT1-+)*%
X127040000Y-112500000D02*
X127000000Y-112540000D01*
%TO.N,Net-(EMG_v1--Vs)*%
X140500000Y-94785000D02*
X130715000Y-94785000D01*
X130715000Y-94785000D02*
X127080200Y-98419800D01*
X127080200Y-98419800D02*
X124200500Y-98419800D01*
%TD*%
M02*
