%TF.GenerationSoftware,KiCad,Pcbnew,9.0.1*%
%TF.CreationDate,2025-05-14T15:59:23+08:00*%
%TF.ProjectId,emgPCB,656d6750-4342-42e6-9b69-6361645f7063,rev?*%
%TF.SameCoordinates,Original*%
%TF.FileFunction,Legend,Top*%
%TF.FilePolarity,Positive*%
%FSLAX46Y46*%
G04 Gerber Fmt 4.6, Leading zero omitted, Abs format (unit mm)*
G04 Created by KiCad (PCBNEW 9.0.1) date 2025-05-14 15:59:23*
%MOMM*%
%LPD*%
G01*
G04 APERTURE LIST*
%ADD10C,0.150000*%
%ADD11C,0.100000*%
%ADD12C,0.125000*%
%ADD13C,0.127000*%
%ADD14C,0.120000*%
%ADD15C,0.200000*%
%ADD16C,0.406400*%
%ADD17C,0.304800*%
G04 APERTURE END LIST*
D10*
X158997640Y-79323095D02*
X158188117Y-79323095D01*
X158188117Y-79323095D02*
X158092879Y-79370714D01*
X158092879Y-79370714D02*
X158045260Y-79418333D01*
X158045260Y-79418333D02*
X157997640Y-79513571D01*
X157997640Y-79513571D02*
X157997640Y-79704047D01*
X157997640Y-79704047D02*
X158045260Y-79799285D01*
X158045260Y-79799285D02*
X158092879Y-79846904D01*
X158092879Y-79846904D02*
X158188117Y-79894523D01*
X158188117Y-79894523D02*
X158997640Y-79894523D01*
X157997640Y-80894523D02*
X157997640Y-80323095D01*
X157997640Y-80608809D02*
X158997640Y-80608809D01*
X158997640Y-80608809D02*
X158854783Y-80513571D01*
X158854783Y-80513571D02*
X158759545Y-80418333D01*
X158759545Y-80418333D02*
X158711926Y-80323095D01*
D11*
X168142163Y-93019596D02*
X168142163Y-92391024D01*
X168142163Y-92705310D02*
X169142163Y-92705310D01*
X169142163Y-92705310D02*
X168999306Y-92600548D01*
X168999306Y-92600548D02*
X168904068Y-92495786D01*
X168904068Y-92495786D02*
X168856449Y-92391024D01*
X168713592Y-93648167D02*
X168761211Y-93543405D01*
X168761211Y-93543405D02*
X168808830Y-93491024D01*
X168808830Y-93491024D02*
X168904068Y-93438643D01*
X168904068Y-93438643D02*
X168951687Y-93438643D01*
X168951687Y-93438643D02*
X169046925Y-93491024D01*
X169046925Y-93491024D02*
X169094544Y-93543405D01*
X169094544Y-93543405D02*
X169142163Y-93648167D01*
X169142163Y-93648167D02*
X169142163Y-93857691D01*
X169142163Y-93857691D02*
X169094544Y-93962453D01*
X169094544Y-93962453D02*
X169046925Y-94014834D01*
X169046925Y-94014834D02*
X168951687Y-94067215D01*
X168951687Y-94067215D02*
X168904068Y-94067215D01*
X168904068Y-94067215D02*
X168808830Y-94014834D01*
X168808830Y-94014834D02*
X168761211Y-93962453D01*
X168761211Y-93962453D02*
X168713592Y-93857691D01*
X168713592Y-93857691D02*
X168713592Y-93648167D01*
X168713592Y-93648167D02*
X168665973Y-93543405D01*
X168665973Y-93543405D02*
X168618354Y-93491024D01*
X168618354Y-93491024D02*
X168523116Y-93438643D01*
X168523116Y-93438643D02*
X168332640Y-93438643D01*
X168332640Y-93438643D02*
X168237402Y-93491024D01*
X168237402Y-93491024D02*
X168189783Y-93543405D01*
X168189783Y-93543405D02*
X168142163Y-93648167D01*
X168142163Y-93648167D02*
X168142163Y-93857691D01*
X168142163Y-93857691D02*
X168189783Y-93962453D01*
X168189783Y-93962453D02*
X168237402Y-94014834D01*
X168237402Y-94014834D02*
X168332640Y-94067215D01*
X168332640Y-94067215D02*
X168523116Y-94067215D01*
X168523116Y-94067215D02*
X168618354Y-94014834D01*
X168618354Y-94014834D02*
X168665973Y-93962453D01*
X168665973Y-93962453D02*
X168713592Y-93857691D01*
X168142163Y-98099596D02*
X168142163Y-97471024D01*
X168142163Y-97785310D02*
X169142163Y-97785310D01*
X169142163Y-97785310D02*
X168999306Y-97680548D01*
X168999306Y-97680548D02*
X168904068Y-97575786D01*
X168904068Y-97575786D02*
X168856449Y-97471024D01*
X169142163Y-99042453D02*
X169142163Y-98832929D01*
X169142163Y-98832929D02*
X169094544Y-98728167D01*
X169094544Y-98728167D02*
X169046925Y-98675786D01*
X169046925Y-98675786D02*
X168904068Y-98571024D01*
X168904068Y-98571024D02*
X168713592Y-98518643D01*
X168713592Y-98518643D02*
X168332640Y-98518643D01*
X168332640Y-98518643D02*
X168237402Y-98571024D01*
X168237402Y-98571024D02*
X168189783Y-98623405D01*
X168189783Y-98623405D02*
X168142163Y-98728167D01*
X168142163Y-98728167D02*
X168142163Y-98937691D01*
X168142163Y-98937691D02*
X168189783Y-99042453D01*
X168189783Y-99042453D02*
X168237402Y-99094834D01*
X168237402Y-99094834D02*
X168332640Y-99147215D01*
X168332640Y-99147215D02*
X168570735Y-99147215D01*
X168570735Y-99147215D02*
X168665973Y-99094834D01*
X168665973Y-99094834D02*
X168713592Y-99042453D01*
X168713592Y-99042453D02*
X168761211Y-98937691D01*
X168761211Y-98937691D02*
X168761211Y-98728167D01*
X168761211Y-98728167D02*
X168713592Y-98623405D01*
X168713592Y-98623405D02*
X168665973Y-98571024D01*
X168665973Y-98571024D02*
X168570735Y-98518643D01*
X147843864Y-95330101D02*
X147891483Y-95382482D01*
X147891483Y-95382482D02*
X147939102Y-95487244D01*
X147939102Y-95487244D02*
X147939102Y-95749149D01*
X147939102Y-95749149D02*
X147891483Y-95853911D01*
X147891483Y-95853911D02*
X147843864Y-95906292D01*
X147843864Y-95906292D02*
X147748626Y-95958673D01*
X147748626Y-95958673D02*
X147653388Y-95958673D01*
X147653388Y-95958673D02*
X147510531Y-95906292D01*
X147510531Y-95906292D02*
X146939102Y-95277720D01*
X146939102Y-95277720D02*
X146939102Y-95958673D01*
X168985932Y-82275312D02*
X169033551Y-82327693D01*
X169033551Y-82327693D02*
X169081170Y-82432455D01*
X169081170Y-82432455D02*
X169081170Y-82694360D01*
X169081170Y-82694360D02*
X169033551Y-82799122D01*
X169033551Y-82799122D02*
X168985932Y-82851503D01*
X168985932Y-82851503D02*
X168890694Y-82903884D01*
X168890694Y-82903884D02*
X168795456Y-82903884D01*
X168795456Y-82903884D02*
X168652599Y-82851503D01*
X168652599Y-82851503D02*
X168081170Y-82222931D01*
X168081170Y-82222931D02*
X168081170Y-82903884D01*
X168985932Y-83322931D02*
X169033551Y-83375312D01*
X169033551Y-83375312D02*
X169081170Y-83480074D01*
X169081170Y-83480074D02*
X169081170Y-83741979D01*
X169081170Y-83741979D02*
X169033551Y-83846741D01*
X169033551Y-83846741D02*
X168985932Y-83899122D01*
X168985932Y-83899122D02*
X168890694Y-83951503D01*
X168890694Y-83951503D02*
X168795456Y-83951503D01*
X168795456Y-83951503D02*
X168652599Y-83899122D01*
X168652599Y-83899122D02*
X168081170Y-83270550D01*
X168081170Y-83270550D02*
X168081170Y-83951503D01*
X147933749Y-85805851D02*
X147933749Y-85596327D01*
X147933749Y-85596327D02*
X147886130Y-85491565D01*
X147886130Y-85491565D02*
X147838511Y-85439184D01*
X147838511Y-85439184D02*
X147695654Y-85334422D01*
X147695654Y-85334422D02*
X147505178Y-85282041D01*
X147505178Y-85282041D02*
X147124226Y-85282041D01*
X147124226Y-85282041D02*
X147028988Y-85334422D01*
X147028988Y-85334422D02*
X146981369Y-85386803D01*
X146981369Y-85386803D02*
X146933749Y-85491565D01*
X146933749Y-85491565D02*
X146933749Y-85701089D01*
X146933749Y-85701089D02*
X146981369Y-85805851D01*
X146981369Y-85805851D02*
X147028988Y-85858232D01*
X147028988Y-85858232D02*
X147124226Y-85910613D01*
X147124226Y-85910613D02*
X147362321Y-85910613D01*
X147362321Y-85910613D02*
X147457559Y-85858232D01*
X147457559Y-85858232D02*
X147505178Y-85805851D01*
X147505178Y-85805851D02*
X147552797Y-85701089D01*
X147552797Y-85701089D02*
X147552797Y-85491565D01*
X147552797Y-85491565D02*
X147505178Y-85386803D01*
X147505178Y-85386803D02*
X147457559Y-85334422D01*
X147457559Y-85334422D02*
X147362321Y-85282041D01*
X147933749Y-82689660D02*
X147933749Y-83422994D01*
X147933749Y-83422994D02*
X146933749Y-82951565D01*
X146878497Y-65691567D02*
X146878497Y-65062995D01*
X146878497Y-65377281D02*
X147878497Y-65377281D01*
X147878497Y-65377281D02*
X147735640Y-65272519D01*
X147735640Y-65272519D02*
X147640402Y-65167757D01*
X147640402Y-65167757D02*
X147592783Y-65062995D01*
X147545164Y-66634424D02*
X146878497Y-66634424D01*
X147926117Y-66372519D02*
X147211831Y-66110614D01*
X147211831Y-66110614D02*
X147211831Y-66791567D01*
X169081170Y-62406943D02*
X169081170Y-63087896D01*
X169081170Y-63087896D02*
X168700218Y-62721229D01*
X168700218Y-62721229D02*
X168700218Y-62878372D01*
X168700218Y-62878372D02*
X168652599Y-62983134D01*
X168652599Y-62983134D02*
X168604980Y-63035515D01*
X168604980Y-63035515D02*
X168509742Y-63087896D01*
X168509742Y-63087896D02*
X168271647Y-63087896D01*
X168271647Y-63087896D02*
X168176409Y-63035515D01*
X168176409Y-63035515D02*
X168128790Y-62983134D01*
X168128790Y-62983134D02*
X168081170Y-62878372D01*
X168081170Y-62878372D02*
X168081170Y-62564086D01*
X168081170Y-62564086D02*
X168128790Y-62459324D01*
X168128790Y-62459324D02*
X168176409Y-62406943D01*
X169081170Y-63768848D02*
X169081170Y-63873610D01*
X169081170Y-63873610D02*
X169033551Y-63978372D01*
X169033551Y-63978372D02*
X168985932Y-64030753D01*
X168985932Y-64030753D02*
X168890694Y-64083134D01*
X168890694Y-64083134D02*
X168700218Y-64135515D01*
X168700218Y-64135515D02*
X168462123Y-64135515D01*
X168462123Y-64135515D02*
X168271647Y-64083134D01*
X168271647Y-64083134D02*
X168176409Y-64030753D01*
X168176409Y-64030753D02*
X168128790Y-63978372D01*
X168128790Y-63978372D02*
X168081170Y-63873610D01*
X168081170Y-63873610D02*
X168081170Y-63768848D01*
X168081170Y-63768848D02*
X168128790Y-63664086D01*
X168128790Y-63664086D02*
X168176409Y-63611705D01*
X168176409Y-63611705D02*
X168271647Y-63559324D01*
X168271647Y-63559324D02*
X168462123Y-63506943D01*
X168462123Y-63506943D02*
X168700218Y-63506943D01*
X168700218Y-63506943D02*
X168890694Y-63559324D01*
X168890694Y-63559324D02*
X168985932Y-63611705D01*
X168985932Y-63611705D02*
X169033551Y-63664086D01*
X169033551Y-63664086D02*
X169081170Y-63768848D01*
X168142163Y-90479596D02*
X168142163Y-89851024D01*
X168142163Y-90165310D02*
X169142163Y-90165310D01*
X169142163Y-90165310D02*
X168999306Y-90060548D01*
X168999306Y-90060548D02*
X168904068Y-89955786D01*
X168904068Y-89955786D02*
X168856449Y-89851024D01*
X168142163Y-91003405D02*
X168142163Y-91212929D01*
X168142163Y-91212929D02*
X168189783Y-91317691D01*
X168189783Y-91317691D02*
X168237402Y-91370072D01*
X168237402Y-91370072D02*
X168380259Y-91474834D01*
X168380259Y-91474834D02*
X168570735Y-91527215D01*
X168570735Y-91527215D02*
X168951687Y-91527215D01*
X168951687Y-91527215D02*
X169046925Y-91474834D01*
X169046925Y-91474834D02*
X169094544Y-91422453D01*
X169094544Y-91422453D02*
X169142163Y-91317691D01*
X169142163Y-91317691D02*
X169142163Y-91108167D01*
X169142163Y-91108167D02*
X169094544Y-91003405D01*
X169094544Y-91003405D02*
X169046925Y-90951024D01*
X169046925Y-90951024D02*
X168951687Y-90898643D01*
X168951687Y-90898643D02*
X168713592Y-90898643D01*
X168713592Y-90898643D02*
X168618354Y-90951024D01*
X168618354Y-90951024D02*
X168570735Y-91003405D01*
X168570735Y-91003405D02*
X168523116Y-91108167D01*
X168523116Y-91108167D02*
X168523116Y-91317691D01*
X168523116Y-91317691D02*
X168570735Y-91422453D01*
X168570735Y-91422453D02*
X168618354Y-91474834D01*
X168618354Y-91474834D02*
X168713592Y-91527215D01*
X146878497Y-68231567D02*
X146878497Y-67602995D01*
X146878497Y-67917281D02*
X147878497Y-67917281D01*
X147878497Y-67917281D02*
X147735640Y-67812519D01*
X147735640Y-67812519D02*
X147640402Y-67707757D01*
X147640402Y-67707757D02*
X147592783Y-67602995D01*
X147878497Y-68598233D02*
X147878497Y-69279186D01*
X147878497Y-69279186D02*
X147497545Y-68912519D01*
X147497545Y-68912519D02*
X147497545Y-69069662D01*
X147497545Y-69069662D02*
X147449926Y-69174424D01*
X147449926Y-69174424D02*
X147402307Y-69226805D01*
X147402307Y-69226805D02*
X147307069Y-69279186D01*
X147307069Y-69279186D02*
X147068974Y-69279186D01*
X147068974Y-69279186D02*
X146973736Y-69226805D01*
X146973736Y-69226805D02*
X146926117Y-69174424D01*
X146926117Y-69174424D02*
X146878497Y-69069662D01*
X146878497Y-69069662D02*
X146878497Y-68755376D01*
X146878497Y-68755376D02*
X146926117Y-68650614D01*
X146926117Y-68650614D02*
X146973736Y-68598233D01*
X169046925Y-84771024D02*
X169094544Y-84823405D01*
X169094544Y-84823405D02*
X169142163Y-84928167D01*
X169142163Y-84928167D02*
X169142163Y-85190072D01*
X169142163Y-85190072D02*
X169094544Y-85294834D01*
X169094544Y-85294834D02*
X169046925Y-85347215D01*
X169046925Y-85347215D02*
X168951687Y-85399596D01*
X168951687Y-85399596D02*
X168856449Y-85399596D01*
X168856449Y-85399596D02*
X168713592Y-85347215D01*
X168713592Y-85347215D02*
X168142163Y-84718643D01*
X168142163Y-84718643D02*
X168142163Y-85399596D01*
X168142163Y-86447215D02*
X168142163Y-85818643D01*
X168142163Y-86132929D02*
X169142163Y-86132929D01*
X169142163Y-86132929D02*
X168999306Y-86028167D01*
X168999306Y-86028167D02*
X168904068Y-85923405D01*
X168904068Y-85923405D02*
X168856449Y-85818643D01*
X168985932Y-67539324D02*
X169033551Y-67591705D01*
X169033551Y-67591705D02*
X169081170Y-67696467D01*
X169081170Y-67696467D02*
X169081170Y-67958372D01*
X169081170Y-67958372D02*
X169033551Y-68063134D01*
X169033551Y-68063134D02*
X168985932Y-68115515D01*
X168985932Y-68115515D02*
X168890694Y-68167896D01*
X168890694Y-68167896D02*
X168795456Y-68167896D01*
X168795456Y-68167896D02*
X168652599Y-68115515D01*
X168652599Y-68115515D02*
X168081170Y-67486943D01*
X168081170Y-67486943D02*
X168081170Y-68167896D01*
X168652599Y-68796467D02*
X168700218Y-68691705D01*
X168700218Y-68691705D02*
X168747837Y-68639324D01*
X168747837Y-68639324D02*
X168843075Y-68586943D01*
X168843075Y-68586943D02*
X168890694Y-68586943D01*
X168890694Y-68586943D02*
X168985932Y-68639324D01*
X168985932Y-68639324D02*
X169033551Y-68691705D01*
X169033551Y-68691705D02*
X169081170Y-68796467D01*
X169081170Y-68796467D02*
X169081170Y-69005991D01*
X169081170Y-69005991D02*
X169033551Y-69110753D01*
X169033551Y-69110753D02*
X168985932Y-69163134D01*
X168985932Y-69163134D02*
X168890694Y-69215515D01*
X168890694Y-69215515D02*
X168843075Y-69215515D01*
X168843075Y-69215515D02*
X168747837Y-69163134D01*
X168747837Y-69163134D02*
X168700218Y-69110753D01*
X168700218Y-69110753D02*
X168652599Y-69005991D01*
X168652599Y-69005991D02*
X168652599Y-68796467D01*
X168652599Y-68796467D02*
X168604980Y-68691705D01*
X168604980Y-68691705D02*
X168557361Y-68639324D01*
X168557361Y-68639324D02*
X168462123Y-68586943D01*
X168462123Y-68586943D02*
X168271647Y-68586943D01*
X168271647Y-68586943D02*
X168176409Y-68639324D01*
X168176409Y-68639324D02*
X168128790Y-68691705D01*
X168128790Y-68691705D02*
X168081170Y-68796467D01*
X168081170Y-68796467D02*
X168081170Y-69005991D01*
X168081170Y-69005991D02*
X168128790Y-69110753D01*
X168128790Y-69110753D02*
X168176409Y-69163134D01*
X168176409Y-69163134D02*
X168271647Y-69215515D01*
X168271647Y-69215515D02*
X168462123Y-69215515D01*
X168462123Y-69215515D02*
X168557361Y-69163134D01*
X168557361Y-69163134D02*
X168604980Y-69110753D01*
X168604980Y-69110753D02*
X168652599Y-69005991D01*
X147600416Y-90885851D02*
X146933749Y-90885851D01*
X147981369Y-90623946D02*
X147267083Y-90362041D01*
X147267083Y-90362041D02*
X147267083Y-91042994D01*
X168985932Y-70079324D02*
X169033551Y-70131705D01*
X169033551Y-70131705D02*
X169081170Y-70236467D01*
X169081170Y-70236467D02*
X169081170Y-70498372D01*
X169081170Y-70498372D02*
X169033551Y-70603134D01*
X169033551Y-70603134D02*
X168985932Y-70655515D01*
X168985932Y-70655515D02*
X168890694Y-70707896D01*
X168890694Y-70707896D02*
X168795456Y-70707896D01*
X168795456Y-70707896D02*
X168652599Y-70655515D01*
X168652599Y-70655515D02*
X168081170Y-70026943D01*
X168081170Y-70026943D02*
X168081170Y-70707896D01*
X169081170Y-71074562D02*
X169081170Y-71807896D01*
X169081170Y-71807896D02*
X168081170Y-71336467D01*
X168985932Y-75159324D02*
X169033551Y-75211705D01*
X169033551Y-75211705D02*
X169081170Y-75316467D01*
X169081170Y-75316467D02*
X169081170Y-75578372D01*
X169081170Y-75578372D02*
X169033551Y-75683134D01*
X169033551Y-75683134D02*
X168985932Y-75735515D01*
X168985932Y-75735515D02*
X168890694Y-75787896D01*
X168890694Y-75787896D02*
X168795456Y-75787896D01*
X168795456Y-75787896D02*
X168652599Y-75735515D01*
X168652599Y-75735515D02*
X168081170Y-75106943D01*
X168081170Y-75106943D02*
X168081170Y-75787896D01*
X169081170Y-76783134D02*
X169081170Y-76259324D01*
X169081170Y-76259324D02*
X168604980Y-76206943D01*
X168604980Y-76206943D02*
X168652599Y-76259324D01*
X168652599Y-76259324D02*
X168700218Y-76364086D01*
X168700218Y-76364086D02*
X168700218Y-76625991D01*
X168700218Y-76625991D02*
X168652599Y-76730753D01*
X168652599Y-76730753D02*
X168604980Y-76783134D01*
X168604980Y-76783134D02*
X168509742Y-76835515D01*
X168509742Y-76835515D02*
X168271647Y-76835515D01*
X168271647Y-76835515D02*
X168176409Y-76783134D01*
X168176409Y-76783134D02*
X168128790Y-76730753D01*
X168128790Y-76730753D02*
X168081170Y-76625991D01*
X168081170Y-76625991D02*
X168081170Y-76364086D01*
X168081170Y-76364086D02*
X168128790Y-76259324D01*
X168128790Y-76259324D02*
X168176409Y-76206943D01*
X146939102Y-98498673D02*
X146939102Y-97870101D01*
X146939102Y-98184387D02*
X147939102Y-98184387D01*
X147939102Y-98184387D02*
X147796245Y-98079625D01*
X147796245Y-98079625D02*
X147701007Y-97974863D01*
X147701007Y-97974863D02*
X147653388Y-97870101D01*
X146933749Y-77766803D02*
X146933749Y-77976327D01*
X146933749Y-77976327D02*
X146981369Y-78081089D01*
X146981369Y-78081089D02*
X147028988Y-78133470D01*
X147028988Y-78133470D02*
X147171845Y-78238232D01*
X147171845Y-78238232D02*
X147362321Y-78290613D01*
X147362321Y-78290613D02*
X147743273Y-78290613D01*
X147743273Y-78290613D02*
X147838511Y-78238232D01*
X147838511Y-78238232D02*
X147886130Y-78185851D01*
X147886130Y-78185851D02*
X147933749Y-78081089D01*
X147933749Y-78081089D02*
X147933749Y-77871565D01*
X147933749Y-77871565D02*
X147886130Y-77766803D01*
X147886130Y-77766803D02*
X147838511Y-77714422D01*
X147838511Y-77714422D02*
X147743273Y-77662041D01*
X147743273Y-77662041D02*
X147505178Y-77662041D01*
X147505178Y-77662041D02*
X147409940Y-77714422D01*
X147409940Y-77714422D02*
X147362321Y-77766803D01*
X147362321Y-77766803D02*
X147314702Y-77871565D01*
X147314702Y-77871565D02*
X147314702Y-78081089D01*
X147314702Y-78081089D02*
X147362321Y-78185851D01*
X147362321Y-78185851D02*
X147409940Y-78238232D01*
X147409940Y-78238232D02*
X147505178Y-78290613D01*
X168142163Y-95559596D02*
X168142163Y-94931024D01*
X168142163Y-95245310D02*
X169142163Y-95245310D01*
X169142163Y-95245310D02*
X168999306Y-95140548D01*
X168999306Y-95140548D02*
X168904068Y-95035786D01*
X168904068Y-95035786D02*
X168856449Y-94931024D01*
X169142163Y-95926262D02*
X169142163Y-96659596D01*
X169142163Y-96659596D02*
X168142163Y-96188167D01*
X168985932Y-80239324D02*
X169033551Y-80291705D01*
X169033551Y-80291705D02*
X169081170Y-80396467D01*
X169081170Y-80396467D02*
X169081170Y-80658372D01*
X169081170Y-80658372D02*
X169033551Y-80763134D01*
X169033551Y-80763134D02*
X168985932Y-80815515D01*
X168985932Y-80815515D02*
X168890694Y-80867896D01*
X168890694Y-80867896D02*
X168795456Y-80867896D01*
X168795456Y-80867896D02*
X168652599Y-80815515D01*
X168652599Y-80815515D02*
X168081170Y-80186943D01*
X168081170Y-80186943D02*
X168081170Y-80867896D01*
X169081170Y-81234562D02*
X169081170Y-81915515D01*
X169081170Y-81915515D02*
X168700218Y-81548848D01*
X168700218Y-81548848D02*
X168700218Y-81705991D01*
X168700218Y-81705991D02*
X168652599Y-81810753D01*
X168652599Y-81810753D02*
X168604980Y-81863134D01*
X168604980Y-81863134D02*
X168509742Y-81915515D01*
X168509742Y-81915515D02*
X168271647Y-81915515D01*
X168271647Y-81915515D02*
X168176409Y-81863134D01*
X168176409Y-81863134D02*
X168128790Y-81810753D01*
X168128790Y-81810753D02*
X168081170Y-81705991D01*
X168081170Y-81705991D02*
X168081170Y-81391705D01*
X168081170Y-81391705D02*
X168128790Y-81286943D01*
X168128790Y-81286943D02*
X168176409Y-81234562D01*
D12*
X146879797Y-70788014D02*
X146879797Y-70159442D01*
X146879797Y-70473728D02*
X147879797Y-70473728D01*
X147879797Y-70473728D02*
X147736940Y-70368966D01*
X147736940Y-70368966D02*
X147641702Y-70264204D01*
X147641702Y-70264204D02*
X147594083Y-70159442D01*
X147784559Y-71207061D02*
X147832178Y-71259442D01*
X147832178Y-71259442D02*
X147879797Y-71364204D01*
X147879797Y-71364204D02*
X147879797Y-71626109D01*
X147879797Y-71626109D02*
X147832178Y-71730871D01*
X147832178Y-71730871D02*
X147784559Y-71783252D01*
X147784559Y-71783252D02*
X147689321Y-71835633D01*
X147689321Y-71835633D02*
X147594083Y-71835633D01*
X147594083Y-71835633D02*
X147451226Y-71783252D01*
X147451226Y-71783252D02*
X146879797Y-71154680D01*
X146879797Y-71154680D02*
X146879797Y-71835633D01*
D11*
X168985932Y-72619324D02*
X169033551Y-72671705D01*
X169033551Y-72671705D02*
X169081170Y-72776467D01*
X169081170Y-72776467D02*
X169081170Y-73038372D01*
X169081170Y-73038372D02*
X169033551Y-73143134D01*
X169033551Y-73143134D02*
X168985932Y-73195515D01*
X168985932Y-73195515D02*
X168890694Y-73247896D01*
X168890694Y-73247896D02*
X168795456Y-73247896D01*
X168795456Y-73247896D02*
X168652599Y-73195515D01*
X168652599Y-73195515D02*
X168081170Y-72566943D01*
X168081170Y-72566943D02*
X168081170Y-73247896D01*
X169081170Y-74190753D02*
X169081170Y-73981229D01*
X169081170Y-73981229D02*
X169033551Y-73876467D01*
X169033551Y-73876467D02*
X168985932Y-73824086D01*
X168985932Y-73824086D02*
X168843075Y-73719324D01*
X168843075Y-73719324D02*
X168652599Y-73666943D01*
X168652599Y-73666943D02*
X168271647Y-73666943D01*
X168271647Y-73666943D02*
X168176409Y-73719324D01*
X168176409Y-73719324D02*
X168128790Y-73771705D01*
X168128790Y-73771705D02*
X168081170Y-73876467D01*
X168081170Y-73876467D02*
X168081170Y-74085991D01*
X168081170Y-74085991D02*
X168128790Y-74190753D01*
X168128790Y-74190753D02*
X168176409Y-74243134D01*
X168176409Y-74243134D02*
X168271647Y-74295515D01*
X168271647Y-74295515D02*
X168509742Y-74295515D01*
X168509742Y-74295515D02*
X168604980Y-74243134D01*
X168604980Y-74243134D02*
X168652599Y-74190753D01*
X168652599Y-74190753D02*
X168700218Y-74085991D01*
X168700218Y-74085991D02*
X168700218Y-73876467D01*
X168700218Y-73876467D02*
X168652599Y-73771705D01*
X168652599Y-73771705D02*
X168604980Y-73719324D01*
X168604980Y-73719324D02*
X168509742Y-73666943D01*
X168985932Y-64999324D02*
X169033551Y-65051705D01*
X169033551Y-65051705D02*
X169081170Y-65156467D01*
X169081170Y-65156467D02*
X169081170Y-65418372D01*
X169081170Y-65418372D02*
X169033551Y-65523134D01*
X169033551Y-65523134D02*
X168985932Y-65575515D01*
X168985932Y-65575515D02*
X168890694Y-65627896D01*
X168890694Y-65627896D02*
X168795456Y-65627896D01*
X168795456Y-65627896D02*
X168652599Y-65575515D01*
X168652599Y-65575515D02*
X168081170Y-64946943D01*
X168081170Y-64946943D02*
X168081170Y-65627896D01*
X168081170Y-66151705D02*
X168081170Y-66361229D01*
X168081170Y-66361229D02*
X168128790Y-66465991D01*
X168128790Y-66465991D02*
X168176409Y-66518372D01*
X168176409Y-66518372D02*
X168319266Y-66623134D01*
X168319266Y-66623134D02*
X168509742Y-66675515D01*
X168509742Y-66675515D02*
X168890694Y-66675515D01*
X168890694Y-66675515D02*
X168985932Y-66623134D01*
X168985932Y-66623134D02*
X169033551Y-66570753D01*
X169033551Y-66570753D02*
X169081170Y-66465991D01*
X169081170Y-66465991D02*
X169081170Y-66256467D01*
X169081170Y-66256467D02*
X169033551Y-66151705D01*
X169033551Y-66151705D02*
X168985932Y-66099324D01*
X168985932Y-66099324D02*
X168890694Y-66046943D01*
X168890694Y-66046943D02*
X168652599Y-66046943D01*
X168652599Y-66046943D02*
X168557361Y-66099324D01*
X168557361Y-66099324D02*
X168509742Y-66151705D01*
X168509742Y-66151705D02*
X168462123Y-66256467D01*
X168462123Y-66256467D02*
X168462123Y-66465991D01*
X168462123Y-66465991D02*
X168509742Y-66570753D01*
X168509742Y-66570753D02*
X168557361Y-66623134D01*
X168557361Y-66623134D02*
X168652599Y-66675515D01*
X147505178Y-80411565D02*
X147552797Y-80306803D01*
X147552797Y-80306803D02*
X147600416Y-80254422D01*
X147600416Y-80254422D02*
X147695654Y-80202041D01*
X147695654Y-80202041D02*
X147743273Y-80202041D01*
X147743273Y-80202041D02*
X147838511Y-80254422D01*
X147838511Y-80254422D02*
X147886130Y-80306803D01*
X147886130Y-80306803D02*
X147933749Y-80411565D01*
X147933749Y-80411565D02*
X147933749Y-80621089D01*
X147933749Y-80621089D02*
X147886130Y-80725851D01*
X147886130Y-80725851D02*
X147838511Y-80778232D01*
X147838511Y-80778232D02*
X147743273Y-80830613D01*
X147743273Y-80830613D02*
X147695654Y-80830613D01*
X147695654Y-80830613D02*
X147600416Y-80778232D01*
X147600416Y-80778232D02*
X147552797Y-80725851D01*
X147552797Y-80725851D02*
X147505178Y-80621089D01*
X147505178Y-80621089D02*
X147505178Y-80411565D01*
X147505178Y-80411565D02*
X147457559Y-80306803D01*
X147457559Y-80306803D02*
X147409940Y-80254422D01*
X147409940Y-80254422D02*
X147314702Y-80202041D01*
X147314702Y-80202041D02*
X147124226Y-80202041D01*
X147124226Y-80202041D02*
X147028988Y-80254422D01*
X147028988Y-80254422D02*
X146981369Y-80306803D01*
X146981369Y-80306803D02*
X146933749Y-80411565D01*
X146933749Y-80411565D02*
X146933749Y-80621089D01*
X146933749Y-80621089D02*
X146981369Y-80725851D01*
X146981369Y-80725851D02*
X147028988Y-80778232D01*
X147028988Y-80778232D02*
X147124226Y-80830613D01*
X147124226Y-80830613D02*
X147314702Y-80830613D01*
X147314702Y-80830613D02*
X147409940Y-80778232D01*
X147409940Y-80778232D02*
X147457559Y-80725851D01*
X147457559Y-80725851D02*
X147505178Y-80621089D01*
X146878497Y-73311567D02*
X146878497Y-72682995D01*
X146878497Y-72997281D02*
X147878497Y-72997281D01*
X147878497Y-72997281D02*
X147735640Y-72892519D01*
X147735640Y-72892519D02*
X147640402Y-72787757D01*
X147640402Y-72787757D02*
X147592783Y-72682995D01*
X146878497Y-74359186D02*
X146878497Y-73730614D01*
X146878497Y-74044900D02*
X147878497Y-74044900D01*
X147878497Y-74044900D02*
X147735640Y-73940138D01*
X147735640Y-73940138D02*
X147640402Y-73835376D01*
X147640402Y-73835376D02*
X147592783Y-73730614D01*
X169046925Y-87311024D02*
X169094544Y-87363405D01*
X169094544Y-87363405D02*
X169142163Y-87468167D01*
X169142163Y-87468167D02*
X169142163Y-87730072D01*
X169142163Y-87730072D02*
X169094544Y-87834834D01*
X169094544Y-87834834D02*
X169046925Y-87887215D01*
X169046925Y-87887215D02*
X168951687Y-87939596D01*
X168951687Y-87939596D02*
X168856449Y-87939596D01*
X168856449Y-87939596D02*
X168713592Y-87887215D01*
X168713592Y-87887215D02*
X168142163Y-87258643D01*
X168142163Y-87258643D02*
X168142163Y-87939596D01*
X169142163Y-88620548D02*
X169142163Y-88725310D01*
X169142163Y-88725310D02*
X169094544Y-88830072D01*
X169094544Y-88830072D02*
X169046925Y-88882453D01*
X169046925Y-88882453D02*
X168951687Y-88934834D01*
X168951687Y-88934834D02*
X168761211Y-88987215D01*
X168761211Y-88987215D02*
X168523116Y-88987215D01*
X168523116Y-88987215D02*
X168332640Y-88934834D01*
X168332640Y-88934834D02*
X168237402Y-88882453D01*
X168237402Y-88882453D02*
X168189783Y-88830072D01*
X168189783Y-88830072D02*
X168142163Y-88725310D01*
X168142163Y-88725310D02*
X168142163Y-88620548D01*
X168142163Y-88620548D02*
X168189783Y-88515786D01*
X168189783Y-88515786D02*
X168237402Y-88463405D01*
X168237402Y-88463405D02*
X168332640Y-88411024D01*
X168332640Y-88411024D02*
X168523116Y-88358643D01*
X168523116Y-88358643D02*
X168761211Y-88358643D01*
X168761211Y-88358643D02*
X168951687Y-88411024D01*
X168951687Y-88411024D02*
X169046925Y-88463405D01*
X169046925Y-88463405D02*
X169094544Y-88515786D01*
X169094544Y-88515786D02*
X169142163Y-88620548D01*
X147939102Y-92737720D02*
X147939102Y-93418673D01*
X147939102Y-93418673D02*
X147558150Y-93052006D01*
X147558150Y-93052006D02*
X147558150Y-93209149D01*
X147558150Y-93209149D02*
X147510531Y-93313911D01*
X147510531Y-93313911D02*
X147462912Y-93366292D01*
X147462912Y-93366292D02*
X147367674Y-93418673D01*
X147367674Y-93418673D02*
X147129579Y-93418673D01*
X147129579Y-93418673D02*
X147034341Y-93366292D01*
X147034341Y-93366292D02*
X146986722Y-93313911D01*
X146986722Y-93313911D02*
X146939102Y-93209149D01*
X146939102Y-93209149D02*
X146939102Y-92894863D01*
X146939102Y-92894863D02*
X146986722Y-92790101D01*
X146986722Y-92790101D02*
X147034341Y-92737720D01*
X147933749Y-88398232D02*
X147933749Y-87874422D01*
X147933749Y-87874422D02*
X147457559Y-87822041D01*
X147457559Y-87822041D02*
X147505178Y-87874422D01*
X147505178Y-87874422D02*
X147552797Y-87979184D01*
X147552797Y-87979184D02*
X147552797Y-88241089D01*
X147552797Y-88241089D02*
X147505178Y-88345851D01*
X147505178Y-88345851D02*
X147457559Y-88398232D01*
X147457559Y-88398232D02*
X147362321Y-88450613D01*
X147362321Y-88450613D02*
X147124226Y-88450613D01*
X147124226Y-88450613D02*
X147028988Y-88398232D01*
X147028988Y-88398232D02*
X146981369Y-88345851D01*
X146981369Y-88345851D02*
X146933749Y-88241089D01*
X146933749Y-88241089D02*
X146933749Y-87979184D01*
X146933749Y-87979184D02*
X146981369Y-87874422D01*
X146981369Y-87874422D02*
X147028988Y-87822041D01*
X146878497Y-75851567D02*
X146878497Y-75222995D01*
X146878497Y-75537281D02*
X147878497Y-75537281D01*
X147878497Y-75537281D02*
X147735640Y-75432519D01*
X147735640Y-75432519D02*
X147640402Y-75327757D01*
X147640402Y-75327757D02*
X147592783Y-75222995D01*
X147878497Y-76532519D02*
X147878497Y-76637281D01*
X147878497Y-76637281D02*
X147830878Y-76742043D01*
X147830878Y-76742043D02*
X147783259Y-76794424D01*
X147783259Y-76794424D02*
X147688021Y-76846805D01*
X147688021Y-76846805D02*
X147497545Y-76899186D01*
X147497545Y-76899186D02*
X147259450Y-76899186D01*
X147259450Y-76899186D02*
X147068974Y-76846805D01*
X147068974Y-76846805D02*
X146973736Y-76794424D01*
X146973736Y-76794424D02*
X146926117Y-76742043D01*
X146926117Y-76742043D02*
X146878497Y-76637281D01*
X146878497Y-76637281D02*
X146878497Y-76532519D01*
X146878497Y-76532519D02*
X146926117Y-76427757D01*
X146926117Y-76427757D02*
X146973736Y-76375376D01*
X146973736Y-76375376D02*
X147068974Y-76322995D01*
X147068974Y-76322995D02*
X147259450Y-76270614D01*
X147259450Y-76270614D02*
X147497545Y-76270614D01*
X147497545Y-76270614D02*
X147688021Y-76322995D01*
X147688021Y-76322995D02*
X147783259Y-76375376D01*
X147783259Y-76375376D02*
X147830878Y-76427757D01*
X147830878Y-76427757D02*
X147878497Y-76532519D01*
X146878497Y-63151567D02*
X146878497Y-62522995D01*
X146878497Y-62837281D02*
X147878497Y-62837281D01*
X147878497Y-62837281D02*
X147735640Y-62732519D01*
X147735640Y-62732519D02*
X147640402Y-62627757D01*
X147640402Y-62627757D02*
X147592783Y-62522995D01*
X147878497Y-64146805D02*
X147878497Y-63622995D01*
X147878497Y-63622995D02*
X147402307Y-63570614D01*
X147402307Y-63570614D02*
X147449926Y-63622995D01*
X147449926Y-63622995D02*
X147497545Y-63727757D01*
X147497545Y-63727757D02*
X147497545Y-63989662D01*
X147497545Y-63989662D02*
X147449926Y-64094424D01*
X147449926Y-64094424D02*
X147402307Y-64146805D01*
X147402307Y-64146805D02*
X147307069Y-64199186D01*
X147307069Y-64199186D02*
X147068974Y-64199186D01*
X147068974Y-64199186D02*
X146973736Y-64146805D01*
X146973736Y-64146805D02*
X146926117Y-64094424D01*
X146926117Y-64094424D02*
X146878497Y-63989662D01*
X146878497Y-63989662D02*
X146878497Y-63727757D01*
X146878497Y-63727757D02*
X146926117Y-63622995D01*
X146926117Y-63622995D02*
X146973736Y-63570614D01*
X168985932Y-77699324D02*
X169033551Y-77751705D01*
X169033551Y-77751705D02*
X169081170Y-77856467D01*
X169081170Y-77856467D02*
X169081170Y-78118372D01*
X169081170Y-78118372D02*
X169033551Y-78223134D01*
X169033551Y-78223134D02*
X168985932Y-78275515D01*
X168985932Y-78275515D02*
X168890694Y-78327896D01*
X168890694Y-78327896D02*
X168795456Y-78327896D01*
X168795456Y-78327896D02*
X168652599Y-78275515D01*
X168652599Y-78275515D02*
X168081170Y-77646943D01*
X168081170Y-77646943D02*
X168081170Y-78327896D01*
X168747837Y-79270753D02*
X168081170Y-79270753D01*
X169128790Y-79008848D02*
X168414504Y-78746943D01*
X168414504Y-78746943D02*
X168414504Y-79427896D01*
D10*
X185056667Y-103917200D02*
X185199524Y-103964819D01*
X185199524Y-103964819D02*
X185437619Y-103964819D01*
X185437619Y-103964819D02*
X185532857Y-103917200D01*
X185532857Y-103917200D02*
X185580476Y-103869580D01*
X185580476Y-103869580D02*
X185628095Y-103774342D01*
X185628095Y-103774342D02*
X185628095Y-103679104D01*
X185628095Y-103679104D02*
X185580476Y-103583866D01*
X185580476Y-103583866D02*
X185532857Y-103536247D01*
X185532857Y-103536247D02*
X185437619Y-103488628D01*
X185437619Y-103488628D02*
X185247143Y-103441009D01*
X185247143Y-103441009D02*
X185151905Y-103393390D01*
X185151905Y-103393390D02*
X185104286Y-103345771D01*
X185104286Y-103345771D02*
X185056667Y-103250533D01*
X185056667Y-103250533D02*
X185056667Y-103155295D01*
X185056667Y-103155295D02*
X185104286Y-103060057D01*
X185104286Y-103060057D02*
X185151905Y-103012438D01*
X185151905Y-103012438D02*
X185247143Y-102964819D01*
X185247143Y-102964819D02*
X185485238Y-102964819D01*
X185485238Y-102964819D02*
X185628095Y-103012438D01*
X185961429Y-102964819D02*
X186199524Y-103964819D01*
X186199524Y-103964819D02*
X186390000Y-103250533D01*
X186390000Y-103250533D02*
X186580476Y-103964819D01*
X186580476Y-103964819D02*
X186818572Y-102964819D01*
X187723333Y-103964819D02*
X187151905Y-103964819D01*
X187437619Y-103964819D02*
X187437619Y-102964819D01*
X187437619Y-102964819D02*
X187342381Y-103107676D01*
X187342381Y-103107676D02*
X187247143Y-103202914D01*
X187247143Y-103202914D02*
X187151905Y-103250533D01*
D11*
X182933609Y-92404761D02*
X182981228Y-92261904D01*
X182981228Y-92261904D02*
X183028847Y-92214285D01*
X183028847Y-92214285D02*
X183124085Y-92166666D01*
X183124085Y-92166666D02*
X183266942Y-92166666D01*
X183266942Y-92166666D02*
X183362180Y-92214285D01*
X183362180Y-92214285D02*
X183409800Y-92261904D01*
X183409800Y-92261904D02*
X183457419Y-92357142D01*
X183457419Y-92357142D02*
X183457419Y-92738094D01*
X183457419Y-92738094D02*
X182457419Y-92738094D01*
X182457419Y-92738094D02*
X182457419Y-92404761D01*
X182457419Y-92404761D02*
X182505038Y-92309523D01*
X182505038Y-92309523D02*
X182552657Y-92261904D01*
X182552657Y-92261904D02*
X182647895Y-92214285D01*
X182647895Y-92214285D02*
X182743133Y-92214285D01*
X182743133Y-92214285D02*
X182838371Y-92261904D01*
X182838371Y-92261904D02*
X182885990Y-92309523D01*
X182885990Y-92309523D02*
X182933609Y-92404761D01*
X182933609Y-92404761D02*
X182933609Y-92738094D01*
X183362180Y-91166666D02*
X183409800Y-91214285D01*
X183409800Y-91214285D02*
X183457419Y-91357142D01*
X183457419Y-91357142D02*
X183457419Y-91452380D01*
X183457419Y-91452380D02*
X183409800Y-91595237D01*
X183409800Y-91595237D02*
X183314561Y-91690475D01*
X183314561Y-91690475D02*
X183219323Y-91738094D01*
X183219323Y-91738094D02*
X183028847Y-91785713D01*
X183028847Y-91785713D02*
X182885990Y-91785713D01*
X182885990Y-91785713D02*
X182695514Y-91738094D01*
X182695514Y-91738094D02*
X182600276Y-91690475D01*
X182600276Y-91690475D02*
X182505038Y-91595237D01*
X182505038Y-91595237D02*
X182457419Y-91452380D01*
X182457419Y-91452380D02*
X182457419Y-91357142D01*
X182457419Y-91357142D02*
X182505038Y-91214285D01*
X182505038Y-91214285D02*
X182552657Y-91166666D01*
X183457419Y-90214285D02*
X183457419Y-90785713D01*
X183457419Y-90499999D02*
X182457419Y-90499999D01*
X182457419Y-90499999D02*
X182600276Y-90595237D01*
X182600276Y-90595237D02*
X182695514Y-90690475D01*
X182695514Y-90690475D02*
X182743133Y-90785713D01*
X178872419Y-87338972D02*
X179872419Y-87005639D01*
X179872419Y-87005639D02*
X178872419Y-86672306D01*
X178872419Y-86148496D02*
X178872419Y-85958020D01*
X178872419Y-85958020D02*
X178920038Y-85862782D01*
X178920038Y-85862782D02*
X179015276Y-85767544D01*
X179015276Y-85767544D02*
X179205752Y-85719925D01*
X179205752Y-85719925D02*
X179539085Y-85719925D01*
X179539085Y-85719925D02*
X179729561Y-85767544D01*
X179729561Y-85767544D02*
X179824800Y-85862782D01*
X179824800Y-85862782D02*
X179872419Y-85958020D01*
X179872419Y-85958020D02*
X179872419Y-86148496D01*
X179872419Y-86148496D02*
X179824800Y-86243734D01*
X179824800Y-86243734D02*
X179729561Y-86338972D01*
X179729561Y-86338972D02*
X179539085Y-86386591D01*
X179539085Y-86386591D02*
X179205752Y-86386591D01*
X179205752Y-86386591D02*
X179015276Y-86338972D01*
X179015276Y-86338972D02*
X178920038Y-86243734D01*
X178920038Y-86243734D02*
X178872419Y-86148496D01*
X178872419Y-85291353D02*
X179681942Y-85291353D01*
X179681942Y-85291353D02*
X179777180Y-85243734D01*
X179777180Y-85243734D02*
X179824800Y-85196115D01*
X179824800Y-85196115D02*
X179872419Y-85100877D01*
X179872419Y-85100877D02*
X179872419Y-84910401D01*
X179872419Y-84910401D02*
X179824800Y-84815163D01*
X179824800Y-84815163D02*
X179777180Y-84767544D01*
X179777180Y-84767544D02*
X179681942Y-84719925D01*
X179681942Y-84719925D02*
X178872419Y-84719925D01*
X178872419Y-84386591D02*
X178872419Y-83815163D01*
X179872419Y-84100877D02*
X178872419Y-84100877D01*
X179491466Y-83481829D02*
X179491466Y-82719925D01*
X179872419Y-83100877D02*
X179110514Y-83100877D01*
X183920038Y-85172306D02*
X183872419Y-85267544D01*
X183872419Y-85267544D02*
X183872419Y-85410401D01*
X183872419Y-85410401D02*
X183920038Y-85553258D01*
X183920038Y-85553258D02*
X184015276Y-85648496D01*
X184015276Y-85648496D02*
X184110514Y-85696115D01*
X184110514Y-85696115D02*
X184300990Y-85743734D01*
X184300990Y-85743734D02*
X184443847Y-85743734D01*
X184443847Y-85743734D02*
X184634323Y-85696115D01*
X184634323Y-85696115D02*
X184729561Y-85648496D01*
X184729561Y-85648496D02*
X184824800Y-85553258D01*
X184824800Y-85553258D02*
X184872419Y-85410401D01*
X184872419Y-85410401D02*
X184872419Y-85315163D01*
X184872419Y-85315163D02*
X184824800Y-85172306D01*
X184824800Y-85172306D02*
X184777180Y-85124687D01*
X184777180Y-85124687D02*
X184443847Y-85124687D01*
X184443847Y-85124687D02*
X184443847Y-85315163D01*
X184872419Y-84696115D02*
X183872419Y-84696115D01*
X183872419Y-84696115D02*
X184872419Y-84124687D01*
X184872419Y-84124687D02*
X183872419Y-84124687D01*
X184872419Y-83648496D02*
X183872419Y-83648496D01*
X183872419Y-83648496D02*
X183872419Y-83410401D01*
X183872419Y-83410401D02*
X183920038Y-83267544D01*
X183920038Y-83267544D02*
X184015276Y-83172306D01*
X184015276Y-83172306D02*
X184110514Y-83124687D01*
X184110514Y-83124687D02*
X184300990Y-83077068D01*
X184300990Y-83077068D02*
X184443847Y-83077068D01*
X184443847Y-83077068D02*
X184634323Y-83124687D01*
X184634323Y-83124687D02*
X184729561Y-83172306D01*
X184729561Y-83172306D02*
X184824800Y-83267544D01*
X184824800Y-83267544D02*
X184872419Y-83410401D01*
X184872419Y-83410401D02*
X184872419Y-83648496D01*
X179872419Y-99838972D02*
X180872419Y-99505639D01*
X180872419Y-99505639D02*
X179872419Y-99172306D01*
X180872419Y-98838972D02*
X179872419Y-98838972D01*
X180872419Y-98362782D02*
X179872419Y-98362782D01*
X179872419Y-98362782D02*
X180872419Y-97791354D01*
X180872419Y-97791354D02*
X179872419Y-97791354D01*
X189372419Y-87338972D02*
X190372419Y-87005639D01*
X190372419Y-87005639D02*
X189372419Y-86672306D01*
X189372419Y-86148496D02*
X189372419Y-85958020D01*
X189372419Y-85958020D02*
X189420038Y-85862782D01*
X189420038Y-85862782D02*
X189515276Y-85767544D01*
X189515276Y-85767544D02*
X189705752Y-85719925D01*
X189705752Y-85719925D02*
X190039085Y-85719925D01*
X190039085Y-85719925D02*
X190229561Y-85767544D01*
X190229561Y-85767544D02*
X190324800Y-85862782D01*
X190324800Y-85862782D02*
X190372419Y-85958020D01*
X190372419Y-85958020D02*
X190372419Y-86148496D01*
X190372419Y-86148496D02*
X190324800Y-86243734D01*
X190324800Y-86243734D02*
X190229561Y-86338972D01*
X190229561Y-86338972D02*
X190039085Y-86386591D01*
X190039085Y-86386591D02*
X189705752Y-86386591D01*
X189705752Y-86386591D02*
X189515276Y-86338972D01*
X189515276Y-86338972D02*
X189420038Y-86243734D01*
X189420038Y-86243734D02*
X189372419Y-86148496D01*
X189372419Y-85291353D02*
X190181942Y-85291353D01*
X190181942Y-85291353D02*
X190277180Y-85243734D01*
X190277180Y-85243734D02*
X190324800Y-85196115D01*
X190324800Y-85196115D02*
X190372419Y-85100877D01*
X190372419Y-85100877D02*
X190372419Y-84910401D01*
X190372419Y-84910401D02*
X190324800Y-84815163D01*
X190324800Y-84815163D02*
X190277180Y-84767544D01*
X190277180Y-84767544D02*
X190181942Y-84719925D01*
X190181942Y-84719925D02*
X189372419Y-84719925D01*
X189372419Y-84386591D02*
X189372419Y-83815163D01*
X190372419Y-84100877D02*
X189372419Y-84100877D01*
X189991466Y-83481829D02*
X189991466Y-82719925D01*
X188420038Y-99172306D02*
X188372419Y-99267544D01*
X188372419Y-99267544D02*
X188372419Y-99410401D01*
X188372419Y-99410401D02*
X188420038Y-99553258D01*
X188420038Y-99553258D02*
X188515276Y-99648496D01*
X188515276Y-99648496D02*
X188610514Y-99696115D01*
X188610514Y-99696115D02*
X188800990Y-99743734D01*
X188800990Y-99743734D02*
X188943847Y-99743734D01*
X188943847Y-99743734D02*
X189134323Y-99696115D01*
X189134323Y-99696115D02*
X189229561Y-99648496D01*
X189229561Y-99648496D02*
X189324800Y-99553258D01*
X189324800Y-99553258D02*
X189372419Y-99410401D01*
X189372419Y-99410401D02*
X189372419Y-99315163D01*
X189372419Y-99315163D02*
X189324800Y-99172306D01*
X189324800Y-99172306D02*
X189277180Y-99124687D01*
X189277180Y-99124687D02*
X188943847Y-99124687D01*
X188943847Y-99124687D02*
X188943847Y-99315163D01*
X189372419Y-98696115D02*
X188372419Y-98696115D01*
X188372419Y-98696115D02*
X189372419Y-98124687D01*
X189372419Y-98124687D02*
X188372419Y-98124687D01*
X189372419Y-97648496D02*
X188372419Y-97648496D01*
X188372419Y-97648496D02*
X188372419Y-97410401D01*
X188372419Y-97410401D02*
X188420038Y-97267544D01*
X188420038Y-97267544D02*
X188515276Y-97172306D01*
X188515276Y-97172306D02*
X188610514Y-97124687D01*
X188610514Y-97124687D02*
X188800990Y-97077068D01*
X188800990Y-97077068D02*
X188943847Y-97077068D01*
X188943847Y-97077068D02*
X189134323Y-97124687D01*
X189134323Y-97124687D02*
X189229561Y-97172306D01*
X189229561Y-97172306D02*
X189324800Y-97267544D01*
X189324800Y-97267544D02*
X189372419Y-97410401D01*
X189372419Y-97410401D02*
X189372419Y-97648496D01*
X162214285Y-128433609D02*
X162357142Y-128481228D01*
X162357142Y-128481228D02*
X162404761Y-128528847D01*
X162404761Y-128528847D02*
X162452380Y-128624085D01*
X162452380Y-128624085D02*
X162452380Y-128766942D01*
X162452380Y-128766942D02*
X162404761Y-128862180D01*
X162404761Y-128862180D02*
X162357142Y-128909800D01*
X162357142Y-128909800D02*
X162261904Y-128957419D01*
X162261904Y-128957419D02*
X161880952Y-128957419D01*
X161880952Y-128957419D02*
X161880952Y-127957419D01*
X161880952Y-127957419D02*
X162214285Y-127957419D01*
X162214285Y-127957419D02*
X162309523Y-128005038D01*
X162309523Y-128005038D02*
X162357142Y-128052657D01*
X162357142Y-128052657D02*
X162404761Y-128147895D01*
X162404761Y-128147895D02*
X162404761Y-128243133D01*
X162404761Y-128243133D02*
X162357142Y-128338371D01*
X162357142Y-128338371D02*
X162309523Y-128385990D01*
X162309523Y-128385990D02*
X162214285Y-128433609D01*
X162214285Y-128433609D02*
X161880952Y-128433609D01*
X162738095Y-127957419D02*
X163309523Y-127957419D01*
X163023809Y-128957419D02*
X163023809Y-127957419D01*
X164166666Y-128957419D02*
X163595238Y-128957419D01*
X163880952Y-128957419D02*
X163880952Y-127957419D01*
X163880952Y-127957419D02*
X163785714Y-128100276D01*
X163785714Y-128100276D02*
X163690476Y-128195514D01*
X163690476Y-128195514D02*
X163595238Y-128243133D01*
X115524309Y-66466390D02*
X115190976Y-66466390D01*
X115048119Y-65942580D02*
X115524309Y-65942580D01*
X115524309Y-65942580D02*
X115524309Y-66942580D01*
X115524309Y-66942580D02*
X115048119Y-66942580D01*
X114619547Y-65942580D02*
X114619547Y-66942580D01*
X114619547Y-66942580D02*
X114286214Y-66228295D01*
X114286214Y-66228295D02*
X113952881Y-66942580D01*
X113952881Y-66942580D02*
X113952881Y-65942580D01*
X112952881Y-66894961D02*
X113048119Y-66942580D01*
X113048119Y-66942580D02*
X113190976Y-66942580D01*
X113190976Y-66942580D02*
X113333833Y-66894961D01*
X113333833Y-66894961D02*
X113429071Y-66799723D01*
X113429071Y-66799723D02*
X113476690Y-66704485D01*
X113476690Y-66704485D02*
X113524309Y-66514009D01*
X113524309Y-66514009D02*
X113524309Y-66371152D01*
X113524309Y-66371152D02*
X113476690Y-66180676D01*
X113476690Y-66180676D02*
X113429071Y-66085438D01*
X113429071Y-66085438D02*
X113333833Y-65990200D01*
X113333833Y-65990200D02*
X113190976Y-65942580D01*
X113190976Y-65942580D02*
X113095738Y-65942580D01*
X113095738Y-65942580D02*
X112952881Y-65990200D01*
X112952881Y-65990200D02*
X112905262Y-66037819D01*
X112905262Y-66037819D02*
X112905262Y-66371152D01*
X112905262Y-66371152D02*
X113095738Y-66371152D01*
X112714786Y-65847342D02*
X111952881Y-65847342D01*
X111810023Y-66609247D02*
X111571928Y-65942580D01*
X111571928Y-65942580D02*
X111333833Y-66609247D01*
X111000499Y-66847342D02*
X110952880Y-66894961D01*
X110952880Y-66894961D02*
X110857642Y-66942580D01*
X110857642Y-66942580D02*
X110619547Y-66942580D01*
X110619547Y-66942580D02*
X110524309Y-66894961D01*
X110524309Y-66894961D02*
X110476690Y-66847342D01*
X110476690Y-66847342D02*
X110429071Y-66752104D01*
X110429071Y-66752104D02*
X110429071Y-66656866D01*
X110429071Y-66656866D02*
X110476690Y-66514009D01*
X110476690Y-66514009D02*
X111048118Y-65942580D01*
X111048118Y-65942580D02*
X110429071Y-65942580D01*
D12*
X122380168Y-76109833D02*
X121618264Y-76109833D01*
X121999216Y-75728880D02*
X121999216Y-76490785D01*
X121284930Y-76728880D02*
X120951597Y-75728880D01*
X120951597Y-75728880D02*
X120618264Y-76728880D01*
X120332549Y-75776500D02*
X120237311Y-75728880D01*
X120237311Y-75728880D02*
X120046835Y-75728880D01*
X120046835Y-75728880D02*
X119951597Y-75776500D01*
X119951597Y-75776500D02*
X119903978Y-75871738D01*
X119903978Y-75871738D02*
X119903978Y-75919357D01*
X119903978Y-75919357D02*
X119951597Y-76014595D01*
X119951597Y-76014595D02*
X120046835Y-76062214D01*
X120046835Y-76062214D02*
X120189692Y-76062214D01*
X120189692Y-76062214D02*
X120284930Y-76109833D01*
X120284930Y-76109833D02*
X120332549Y-76205071D01*
X120332549Y-76205071D02*
X120332549Y-76252690D01*
X120332549Y-76252690D02*
X120284930Y-76347928D01*
X120284930Y-76347928D02*
X120189692Y-76395547D01*
X120189692Y-76395547D02*
X120046835Y-76395547D01*
X120046835Y-76395547D02*
X119951597Y-76347928D01*
D11*
X121872806Y-73679961D02*
X121968044Y-73727580D01*
X121968044Y-73727580D02*
X122110901Y-73727580D01*
X122110901Y-73727580D02*
X122253758Y-73679961D01*
X122253758Y-73679961D02*
X122348996Y-73584723D01*
X122348996Y-73584723D02*
X122396615Y-73489485D01*
X122396615Y-73489485D02*
X122444234Y-73299009D01*
X122444234Y-73299009D02*
X122444234Y-73156152D01*
X122444234Y-73156152D02*
X122396615Y-72965676D01*
X122396615Y-72965676D02*
X122348996Y-72870438D01*
X122348996Y-72870438D02*
X122253758Y-72775200D01*
X122253758Y-72775200D02*
X122110901Y-72727580D01*
X122110901Y-72727580D02*
X122015663Y-72727580D01*
X122015663Y-72727580D02*
X121872806Y-72775200D01*
X121872806Y-72775200D02*
X121825187Y-72822819D01*
X121825187Y-72822819D02*
X121825187Y-73156152D01*
X121825187Y-73156152D02*
X122015663Y-73156152D01*
X121396615Y-72727580D02*
X121396615Y-73727580D01*
X121396615Y-73727580D02*
X120825187Y-72727580D01*
X120825187Y-72727580D02*
X120825187Y-73727580D01*
X120348996Y-72727580D02*
X120348996Y-73727580D01*
X120348996Y-73727580D02*
X120110901Y-73727580D01*
X120110901Y-73727580D02*
X119968044Y-73679961D01*
X119968044Y-73679961D02*
X119872806Y-73584723D01*
X119872806Y-73584723D02*
X119825187Y-73489485D01*
X119825187Y-73489485D02*
X119777568Y-73299009D01*
X119777568Y-73299009D02*
X119777568Y-73156152D01*
X119777568Y-73156152D02*
X119825187Y-72965676D01*
X119825187Y-72965676D02*
X119872806Y-72870438D01*
X119872806Y-72870438D02*
X119968044Y-72775200D01*
X119968044Y-72775200D02*
X120110901Y-72727580D01*
X120110901Y-72727580D02*
X120348996Y-72727580D01*
X122444234Y-62775200D02*
X122301377Y-62727580D01*
X122301377Y-62727580D02*
X122063282Y-62727580D01*
X122063282Y-62727580D02*
X121968044Y-62775200D01*
X121968044Y-62775200D02*
X121920425Y-62822819D01*
X121920425Y-62822819D02*
X121872806Y-62918057D01*
X121872806Y-62918057D02*
X121872806Y-63013295D01*
X121872806Y-63013295D02*
X121920425Y-63108533D01*
X121920425Y-63108533D02*
X121968044Y-63156152D01*
X121968044Y-63156152D02*
X122063282Y-63203771D01*
X122063282Y-63203771D02*
X122253758Y-63251390D01*
X122253758Y-63251390D02*
X122348996Y-63299009D01*
X122348996Y-63299009D02*
X122396615Y-63346628D01*
X122396615Y-63346628D02*
X122444234Y-63441866D01*
X122444234Y-63441866D02*
X122444234Y-63537104D01*
X122444234Y-63537104D02*
X122396615Y-63632342D01*
X122396615Y-63632342D02*
X122348996Y-63679961D01*
X122348996Y-63679961D02*
X122253758Y-63727580D01*
X122253758Y-63727580D02*
X122015663Y-63727580D01*
X122015663Y-63727580D02*
X121872806Y-63679961D01*
X121444234Y-62727580D02*
X121444234Y-63727580D01*
X120444235Y-63679961D02*
X120539473Y-63727580D01*
X120539473Y-63727580D02*
X120682330Y-63727580D01*
X120682330Y-63727580D02*
X120825187Y-63679961D01*
X120825187Y-63679961D02*
X120920425Y-63584723D01*
X120920425Y-63584723D02*
X120968044Y-63489485D01*
X120968044Y-63489485D02*
X121015663Y-63299009D01*
X121015663Y-63299009D02*
X121015663Y-63156152D01*
X121015663Y-63156152D02*
X120968044Y-62965676D01*
X120968044Y-62965676D02*
X120920425Y-62870438D01*
X120920425Y-62870438D02*
X120825187Y-62775200D01*
X120825187Y-62775200D02*
X120682330Y-62727580D01*
X120682330Y-62727580D02*
X120587092Y-62727580D01*
X120587092Y-62727580D02*
X120444235Y-62775200D01*
X120444235Y-62775200D02*
X120396616Y-62822819D01*
X120396616Y-62822819D02*
X120396616Y-63156152D01*
X120396616Y-63156152D02*
X120587092Y-63156152D01*
X122396615Y-70608533D02*
X121634711Y-70608533D01*
X121301377Y-71227580D02*
X120968044Y-70227580D01*
X120968044Y-70227580D02*
X120634711Y-71227580D01*
X120348996Y-70275200D02*
X120253758Y-70227580D01*
X120253758Y-70227580D02*
X120063282Y-70227580D01*
X120063282Y-70227580D02*
X119968044Y-70275200D01*
X119968044Y-70275200D02*
X119920425Y-70370438D01*
X119920425Y-70370438D02*
X119920425Y-70418057D01*
X119920425Y-70418057D02*
X119968044Y-70513295D01*
X119968044Y-70513295D02*
X120063282Y-70560914D01*
X120063282Y-70560914D02*
X120206139Y-70560914D01*
X120206139Y-70560914D02*
X120301377Y-70608533D01*
X120301377Y-70608533D02*
X120348996Y-70703771D01*
X120348996Y-70703771D02*
X120348996Y-70751390D01*
X120348996Y-70751390D02*
X120301377Y-70846628D01*
X120301377Y-70846628D02*
X120206139Y-70894247D01*
X120206139Y-70894247D02*
X120063282Y-70894247D01*
X120063282Y-70894247D02*
X119968044Y-70846628D01*
X121872806Y-61179961D02*
X121968044Y-61227580D01*
X121968044Y-61227580D02*
X122110901Y-61227580D01*
X122110901Y-61227580D02*
X122253758Y-61179961D01*
X122253758Y-61179961D02*
X122348996Y-61084723D01*
X122348996Y-61084723D02*
X122396615Y-60989485D01*
X122396615Y-60989485D02*
X122444234Y-60799009D01*
X122444234Y-60799009D02*
X122444234Y-60656152D01*
X122444234Y-60656152D02*
X122396615Y-60465676D01*
X122396615Y-60465676D02*
X122348996Y-60370438D01*
X122348996Y-60370438D02*
X122253758Y-60275200D01*
X122253758Y-60275200D02*
X122110901Y-60227580D01*
X122110901Y-60227580D02*
X122015663Y-60227580D01*
X122015663Y-60227580D02*
X121872806Y-60275200D01*
X121872806Y-60275200D02*
X121825187Y-60322819D01*
X121825187Y-60322819D02*
X121825187Y-60656152D01*
X121825187Y-60656152D02*
X122015663Y-60656152D01*
X121396615Y-60227580D02*
X121396615Y-61227580D01*
X121396615Y-61227580D02*
X120825187Y-60227580D01*
X120825187Y-60227580D02*
X120825187Y-61227580D01*
X120348996Y-60227580D02*
X120348996Y-61227580D01*
X120348996Y-61227580D02*
X120110901Y-61227580D01*
X120110901Y-61227580D02*
X119968044Y-61179961D01*
X119968044Y-61179961D02*
X119872806Y-61084723D01*
X119872806Y-61084723D02*
X119825187Y-60989485D01*
X119825187Y-60989485D02*
X119777568Y-60799009D01*
X119777568Y-60799009D02*
X119777568Y-60656152D01*
X119777568Y-60656152D02*
X119825187Y-60465676D01*
X119825187Y-60465676D02*
X119872806Y-60370438D01*
X119872806Y-60370438D02*
X119968044Y-60275200D01*
X119968044Y-60275200D02*
X120110901Y-60227580D01*
X120110901Y-60227580D02*
X120348996Y-60227580D01*
X115524309Y-93966390D02*
X115190976Y-93966390D01*
X115048119Y-93442580D02*
X115524309Y-93442580D01*
X115524309Y-93442580D02*
X115524309Y-94442580D01*
X115524309Y-94442580D02*
X115048119Y-94442580D01*
X114619547Y-93442580D02*
X114619547Y-94442580D01*
X114619547Y-94442580D02*
X114286214Y-93728295D01*
X114286214Y-93728295D02*
X113952881Y-94442580D01*
X113952881Y-94442580D02*
X113952881Y-93442580D01*
X112952881Y-94394961D02*
X113048119Y-94442580D01*
X113048119Y-94442580D02*
X113190976Y-94442580D01*
X113190976Y-94442580D02*
X113333833Y-94394961D01*
X113333833Y-94394961D02*
X113429071Y-94299723D01*
X113429071Y-94299723D02*
X113476690Y-94204485D01*
X113476690Y-94204485D02*
X113524309Y-94014009D01*
X113524309Y-94014009D02*
X113524309Y-93871152D01*
X113524309Y-93871152D02*
X113476690Y-93680676D01*
X113476690Y-93680676D02*
X113429071Y-93585438D01*
X113429071Y-93585438D02*
X113333833Y-93490200D01*
X113333833Y-93490200D02*
X113190976Y-93442580D01*
X113190976Y-93442580D02*
X113095738Y-93442580D01*
X113095738Y-93442580D02*
X112952881Y-93490200D01*
X112952881Y-93490200D02*
X112905262Y-93537819D01*
X112905262Y-93537819D02*
X112905262Y-93871152D01*
X112905262Y-93871152D02*
X113095738Y-93871152D01*
X112714786Y-93347342D02*
X111952881Y-93347342D01*
X111810023Y-94109247D02*
X111571928Y-93442580D01*
X111571928Y-93442580D02*
X111333833Y-94109247D01*
X110429071Y-93442580D02*
X111000499Y-93442580D01*
X110714785Y-93442580D02*
X110714785Y-94442580D01*
X110714785Y-94442580D02*
X110810023Y-94299723D01*
X110810023Y-94299723D02*
X110905261Y-94204485D01*
X110905261Y-94204485D02*
X111000499Y-94156866D01*
D12*
X122380168Y-103609833D02*
X121618264Y-103609833D01*
X121999216Y-103228880D02*
X121999216Y-103990785D01*
X121284930Y-104228880D02*
X120951597Y-103228880D01*
X120951597Y-103228880D02*
X120618264Y-104228880D01*
X120332549Y-103276500D02*
X120237311Y-103228880D01*
X120237311Y-103228880D02*
X120046835Y-103228880D01*
X120046835Y-103228880D02*
X119951597Y-103276500D01*
X119951597Y-103276500D02*
X119903978Y-103371738D01*
X119903978Y-103371738D02*
X119903978Y-103419357D01*
X119903978Y-103419357D02*
X119951597Y-103514595D01*
X119951597Y-103514595D02*
X120046835Y-103562214D01*
X120046835Y-103562214D02*
X120189692Y-103562214D01*
X120189692Y-103562214D02*
X120284930Y-103609833D01*
X120284930Y-103609833D02*
X120332549Y-103705071D01*
X120332549Y-103705071D02*
X120332549Y-103752690D01*
X120332549Y-103752690D02*
X120284930Y-103847928D01*
X120284930Y-103847928D02*
X120189692Y-103895547D01*
X120189692Y-103895547D02*
X120046835Y-103895547D01*
X120046835Y-103895547D02*
X119951597Y-103847928D01*
D11*
X121872806Y-101179961D02*
X121968044Y-101227580D01*
X121968044Y-101227580D02*
X122110901Y-101227580D01*
X122110901Y-101227580D02*
X122253758Y-101179961D01*
X122253758Y-101179961D02*
X122348996Y-101084723D01*
X122348996Y-101084723D02*
X122396615Y-100989485D01*
X122396615Y-100989485D02*
X122444234Y-100799009D01*
X122444234Y-100799009D02*
X122444234Y-100656152D01*
X122444234Y-100656152D02*
X122396615Y-100465676D01*
X122396615Y-100465676D02*
X122348996Y-100370438D01*
X122348996Y-100370438D02*
X122253758Y-100275200D01*
X122253758Y-100275200D02*
X122110901Y-100227580D01*
X122110901Y-100227580D02*
X122015663Y-100227580D01*
X122015663Y-100227580D02*
X121872806Y-100275200D01*
X121872806Y-100275200D02*
X121825187Y-100322819D01*
X121825187Y-100322819D02*
X121825187Y-100656152D01*
X121825187Y-100656152D02*
X122015663Y-100656152D01*
X121396615Y-100227580D02*
X121396615Y-101227580D01*
X121396615Y-101227580D02*
X120825187Y-100227580D01*
X120825187Y-100227580D02*
X120825187Y-101227580D01*
X120348996Y-100227580D02*
X120348996Y-101227580D01*
X120348996Y-101227580D02*
X120110901Y-101227580D01*
X120110901Y-101227580D02*
X119968044Y-101179961D01*
X119968044Y-101179961D02*
X119872806Y-101084723D01*
X119872806Y-101084723D02*
X119825187Y-100989485D01*
X119825187Y-100989485D02*
X119777568Y-100799009D01*
X119777568Y-100799009D02*
X119777568Y-100656152D01*
X119777568Y-100656152D02*
X119825187Y-100465676D01*
X119825187Y-100465676D02*
X119872806Y-100370438D01*
X119872806Y-100370438D02*
X119968044Y-100275200D01*
X119968044Y-100275200D02*
X120110901Y-100227580D01*
X120110901Y-100227580D02*
X120348996Y-100227580D01*
X122444234Y-90275200D02*
X122301377Y-90227580D01*
X122301377Y-90227580D02*
X122063282Y-90227580D01*
X122063282Y-90227580D02*
X121968044Y-90275200D01*
X121968044Y-90275200D02*
X121920425Y-90322819D01*
X121920425Y-90322819D02*
X121872806Y-90418057D01*
X121872806Y-90418057D02*
X121872806Y-90513295D01*
X121872806Y-90513295D02*
X121920425Y-90608533D01*
X121920425Y-90608533D02*
X121968044Y-90656152D01*
X121968044Y-90656152D02*
X122063282Y-90703771D01*
X122063282Y-90703771D02*
X122253758Y-90751390D01*
X122253758Y-90751390D02*
X122348996Y-90799009D01*
X122348996Y-90799009D02*
X122396615Y-90846628D01*
X122396615Y-90846628D02*
X122444234Y-90941866D01*
X122444234Y-90941866D02*
X122444234Y-91037104D01*
X122444234Y-91037104D02*
X122396615Y-91132342D01*
X122396615Y-91132342D02*
X122348996Y-91179961D01*
X122348996Y-91179961D02*
X122253758Y-91227580D01*
X122253758Y-91227580D02*
X122015663Y-91227580D01*
X122015663Y-91227580D02*
X121872806Y-91179961D01*
X121444234Y-90227580D02*
X121444234Y-91227580D01*
X120444235Y-91179961D02*
X120539473Y-91227580D01*
X120539473Y-91227580D02*
X120682330Y-91227580D01*
X120682330Y-91227580D02*
X120825187Y-91179961D01*
X120825187Y-91179961D02*
X120920425Y-91084723D01*
X120920425Y-91084723D02*
X120968044Y-90989485D01*
X120968044Y-90989485D02*
X121015663Y-90799009D01*
X121015663Y-90799009D02*
X121015663Y-90656152D01*
X121015663Y-90656152D02*
X120968044Y-90465676D01*
X120968044Y-90465676D02*
X120920425Y-90370438D01*
X120920425Y-90370438D02*
X120825187Y-90275200D01*
X120825187Y-90275200D02*
X120682330Y-90227580D01*
X120682330Y-90227580D02*
X120587092Y-90227580D01*
X120587092Y-90227580D02*
X120444235Y-90275200D01*
X120444235Y-90275200D02*
X120396616Y-90322819D01*
X120396616Y-90322819D02*
X120396616Y-90656152D01*
X120396616Y-90656152D02*
X120587092Y-90656152D01*
X122396615Y-98108533D02*
X121634711Y-98108533D01*
X121301377Y-98727580D02*
X120968044Y-97727580D01*
X120968044Y-97727580D02*
X120634711Y-98727580D01*
X120348996Y-97775200D02*
X120253758Y-97727580D01*
X120253758Y-97727580D02*
X120063282Y-97727580D01*
X120063282Y-97727580D02*
X119968044Y-97775200D01*
X119968044Y-97775200D02*
X119920425Y-97870438D01*
X119920425Y-97870438D02*
X119920425Y-97918057D01*
X119920425Y-97918057D02*
X119968044Y-98013295D01*
X119968044Y-98013295D02*
X120063282Y-98060914D01*
X120063282Y-98060914D02*
X120206139Y-98060914D01*
X120206139Y-98060914D02*
X120301377Y-98108533D01*
X120301377Y-98108533D02*
X120348996Y-98203771D01*
X120348996Y-98203771D02*
X120348996Y-98251390D01*
X120348996Y-98251390D02*
X120301377Y-98346628D01*
X120301377Y-98346628D02*
X120206139Y-98394247D01*
X120206139Y-98394247D02*
X120063282Y-98394247D01*
X120063282Y-98394247D02*
X119968044Y-98346628D01*
X121872806Y-88679961D02*
X121968044Y-88727580D01*
X121968044Y-88727580D02*
X122110901Y-88727580D01*
X122110901Y-88727580D02*
X122253758Y-88679961D01*
X122253758Y-88679961D02*
X122348996Y-88584723D01*
X122348996Y-88584723D02*
X122396615Y-88489485D01*
X122396615Y-88489485D02*
X122444234Y-88299009D01*
X122444234Y-88299009D02*
X122444234Y-88156152D01*
X122444234Y-88156152D02*
X122396615Y-87965676D01*
X122396615Y-87965676D02*
X122348996Y-87870438D01*
X122348996Y-87870438D02*
X122253758Y-87775200D01*
X122253758Y-87775200D02*
X122110901Y-87727580D01*
X122110901Y-87727580D02*
X122015663Y-87727580D01*
X122015663Y-87727580D02*
X121872806Y-87775200D01*
X121872806Y-87775200D02*
X121825187Y-87822819D01*
X121825187Y-87822819D02*
X121825187Y-88156152D01*
X121825187Y-88156152D02*
X122015663Y-88156152D01*
X121396615Y-87727580D02*
X121396615Y-88727580D01*
X121396615Y-88727580D02*
X120825187Y-87727580D01*
X120825187Y-87727580D02*
X120825187Y-88727580D01*
X120348996Y-87727580D02*
X120348996Y-88727580D01*
X120348996Y-88727580D02*
X120110901Y-88727580D01*
X120110901Y-88727580D02*
X119968044Y-88679961D01*
X119968044Y-88679961D02*
X119872806Y-88584723D01*
X119872806Y-88584723D02*
X119825187Y-88489485D01*
X119825187Y-88489485D02*
X119777568Y-88299009D01*
X119777568Y-88299009D02*
X119777568Y-88156152D01*
X119777568Y-88156152D02*
X119825187Y-87965676D01*
X119825187Y-87965676D02*
X119872806Y-87870438D01*
X119872806Y-87870438D02*
X119968044Y-87775200D01*
X119968044Y-87775200D02*
X120110901Y-87727580D01*
X120110901Y-87727580D02*
X120348996Y-87727580D01*
D10*
X113192381Y-112354819D02*
X113763809Y-112354819D01*
X113478095Y-113354819D02*
X113478095Y-112354819D01*
X114097143Y-113354819D02*
X114097143Y-112354819D01*
X114097143Y-112354819D02*
X114478095Y-112354819D01*
X114478095Y-112354819D02*
X114573333Y-112402438D01*
X114573333Y-112402438D02*
X114620952Y-112450057D01*
X114620952Y-112450057D02*
X114668571Y-112545295D01*
X114668571Y-112545295D02*
X114668571Y-112688152D01*
X114668571Y-112688152D02*
X114620952Y-112783390D01*
X114620952Y-112783390D02*
X114573333Y-112831009D01*
X114573333Y-112831009D02*
X114478095Y-112878628D01*
X114478095Y-112878628D02*
X114097143Y-112878628D01*
X115525714Y-112688152D02*
X115525714Y-113354819D01*
X115287619Y-112307200D02*
X115049524Y-113021485D01*
X115049524Y-113021485D02*
X115668571Y-113021485D01*
X116240000Y-112354819D02*
X116335238Y-112354819D01*
X116335238Y-112354819D02*
X116430476Y-112402438D01*
X116430476Y-112402438D02*
X116478095Y-112450057D01*
X116478095Y-112450057D02*
X116525714Y-112545295D01*
X116525714Y-112545295D02*
X116573333Y-112735771D01*
X116573333Y-112735771D02*
X116573333Y-112973866D01*
X116573333Y-112973866D02*
X116525714Y-113164342D01*
X116525714Y-113164342D02*
X116478095Y-113259580D01*
X116478095Y-113259580D02*
X116430476Y-113307200D01*
X116430476Y-113307200D02*
X116335238Y-113354819D01*
X116335238Y-113354819D02*
X116240000Y-113354819D01*
X116240000Y-113354819D02*
X116144762Y-113307200D01*
X116144762Y-113307200D02*
X116097143Y-113259580D01*
X116097143Y-113259580D02*
X116049524Y-113164342D01*
X116049524Y-113164342D02*
X116001905Y-112973866D01*
X116001905Y-112973866D02*
X116001905Y-112735771D01*
X116001905Y-112735771D02*
X116049524Y-112545295D01*
X116049524Y-112545295D02*
X116097143Y-112450057D01*
X116097143Y-112450057D02*
X116144762Y-112402438D01*
X116144762Y-112402438D02*
X116240000Y-112354819D01*
X117478095Y-112354819D02*
X117001905Y-112354819D01*
X117001905Y-112354819D02*
X116954286Y-112831009D01*
X116954286Y-112831009D02*
X117001905Y-112783390D01*
X117001905Y-112783390D02*
X117097143Y-112735771D01*
X117097143Y-112735771D02*
X117335238Y-112735771D01*
X117335238Y-112735771D02*
X117430476Y-112783390D01*
X117430476Y-112783390D02*
X117478095Y-112831009D01*
X117478095Y-112831009D02*
X117525714Y-112926247D01*
X117525714Y-112926247D02*
X117525714Y-113164342D01*
X117525714Y-113164342D02*
X117478095Y-113259580D01*
X117478095Y-113259580D02*
X117430476Y-113307200D01*
X117430476Y-113307200D02*
X117335238Y-113354819D01*
X117335238Y-113354819D02*
X117097143Y-113354819D01*
X117097143Y-113354819D02*
X117001905Y-113307200D01*
X117001905Y-113307200D02*
X116954286Y-113259580D01*
X118382857Y-112354819D02*
X118192381Y-112354819D01*
X118192381Y-112354819D02*
X118097143Y-112402438D01*
X118097143Y-112402438D02*
X118049524Y-112450057D01*
X118049524Y-112450057D02*
X117954286Y-112592914D01*
X117954286Y-112592914D02*
X117906667Y-112783390D01*
X117906667Y-112783390D02*
X117906667Y-113164342D01*
X117906667Y-113164342D02*
X117954286Y-113259580D01*
X117954286Y-113259580D02*
X118001905Y-113307200D01*
X118001905Y-113307200D02*
X118097143Y-113354819D01*
X118097143Y-113354819D02*
X118287619Y-113354819D01*
X118287619Y-113354819D02*
X118382857Y-113307200D01*
X118382857Y-113307200D02*
X118430476Y-113259580D01*
X118430476Y-113259580D02*
X118478095Y-113164342D01*
X118478095Y-113164342D02*
X118478095Y-112926247D01*
X118478095Y-112926247D02*
X118430476Y-112831009D01*
X118430476Y-112831009D02*
X118382857Y-112783390D01*
X118382857Y-112783390D02*
X118287619Y-112735771D01*
X118287619Y-112735771D02*
X118097143Y-112735771D01*
X118097143Y-112735771D02*
X118001905Y-112783390D01*
X118001905Y-112783390D02*
X117954286Y-112831009D01*
X117954286Y-112831009D02*
X117906667Y-112926247D01*
X118668572Y-113450057D02*
X119430476Y-113450057D01*
X120192381Y-113354819D02*
X119620953Y-113354819D01*
X119906667Y-113354819D02*
X119906667Y-112354819D01*
X119906667Y-112354819D02*
X119811429Y-112497676D01*
X119811429Y-112497676D02*
X119716191Y-112592914D01*
X119716191Y-112592914D02*
X119620953Y-112640533D01*
X123952381Y-112531009D02*
X124095238Y-112578628D01*
X124095238Y-112578628D02*
X124142857Y-112626247D01*
X124142857Y-112626247D02*
X124190476Y-112721485D01*
X124190476Y-112721485D02*
X124190476Y-112864342D01*
X124190476Y-112864342D02*
X124142857Y-112959580D01*
X124142857Y-112959580D02*
X124095238Y-113007200D01*
X124095238Y-113007200D02*
X124000000Y-113054819D01*
X124000000Y-113054819D02*
X123619048Y-113054819D01*
X123619048Y-113054819D02*
X123619048Y-112054819D01*
X123619048Y-112054819D02*
X123952381Y-112054819D01*
X123952381Y-112054819D02*
X124047619Y-112102438D01*
X124047619Y-112102438D02*
X124095238Y-112150057D01*
X124095238Y-112150057D02*
X124142857Y-112245295D01*
X124142857Y-112245295D02*
X124142857Y-112340533D01*
X124142857Y-112340533D02*
X124095238Y-112435771D01*
X124095238Y-112435771D02*
X124047619Y-112483390D01*
X124047619Y-112483390D02*
X123952381Y-112531009D01*
X123952381Y-112531009D02*
X123619048Y-112531009D01*
X124619048Y-112673866D02*
X125380953Y-112673866D01*
X125000000Y-113054819D02*
X125000000Y-112292914D01*
X121880952Y-109554819D02*
X122071428Y-109554819D01*
X122071428Y-109554819D02*
X122166666Y-109602438D01*
X122166666Y-109602438D02*
X122261904Y-109697676D01*
X122261904Y-109697676D02*
X122309523Y-109888152D01*
X122309523Y-109888152D02*
X122309523Y-110221485D01*
X122309523Y-110221485D02*
X122261904Y-110411961D01*
X122261904Y-110411961D02*
X122166666Y-110507200D01*
X122166666Y-110507200D02*
X122071428Y-110554819D01*
X122071428Y-110554819D02*
X121880952Y-110554819D01*
X121880952Y-110554819D02*
X121785714Y-110507200D01*
X121785714Y-110507200D02*
X121690476Y-110411961D01*
X121690476Y-110411961D02*
X121642857Y-110221485D01*
X121642857Y-110221485D02*
X121642857Y-109888152D01*
X121642857Y-109888152D02*
X121690476Y-109697676D01*
X121690476Y-109697676D02*
X121785714Y-109602438D01*
X121785714Y-109602438D02*
X121880952Y-109554819D01*
X122738095Y-109554819D02*
X122738095Y-110364342D01*
X122738095Y-110364342D02*
X122785714Y-110459580D01*
X122785714Y-110459580D02*
X122833333Y-110507200D01*
X122833333Y-110507200D02*
X122928571Y-110554819D01*
X122928571Y-110554819D02*
X123119047Y-110554819D01*
X123119047Y-110554819D02*
X123214285Y-110507200D01*
X123214285Y-110507200D02*
X123261904Y-110459580D01*
X123261904Y-110459580D02*
X123309523Y-110364342D01*
X123309523Y-110364342D02*
X123309523Y-109554819D01*
X123642857Y-109554819D02*
X124214285Y-109554819D01*
X123928571Y-110554819D02*
X123928571Y-109554819D01*
X124547619Y-110173866D02*
X125309524Y-110173866D01*
X124928571Y-110554819D02*
X124928571Y-109792914D01*
X105857143Y-110554819D02*
X105857143Y-109554819D01*
X106333333Y-110554819D02*
X106333333Y-109554819D01*
X106333333Y-109554819D02*
X106904761Y-110554819D01*
X106904761Y-110554819D02*
X106904761Y-109554819D01*
X107380952Y-110173866D02*
X108142857Y-110173866D01*
X107761904Y-110554819D02*
X107761904Y-109792914D01*
X121880952Y-123554819D02*
X122071428Y-123554819D01*
X122071428Y-123554819D02*
X122166666Y-123602438D01*
X122166666Y-123602438D02*
X122261904Y-123697676D01*
X122261904Y-123697676D02*
X122309523Y-123888152D01*
X122309523Y-123888152D02*
X122309523Y-124221485D01*
X122309523Y-124221485D02*
X122261904Y-124411961D01*
X122261904Y-124411961D02*
X122166666Y-124507200D01*
X122166666Y-124507200D02*
X122071428Y-124554819D01*
X122071428Y-124554819D02*
X121880952Y-124554819D01*
X121880952Y-124554819D02*
X121785714Y-124507200D01*
X121785714Y-124507200D02*
X121690476Y-124411961D01*
X121690476Y-124411961D02*
X121642857Y-124221485D01*
X121642857Y-124221485D02*
X121642857Y-123888152D01*
X121642857Y-123888152D02*
X121690476Y-123697676D01*
X121690476Y-123697676D02*
X121785714Y-123602438D01*
X121785714Y-123602438D02*
X121880952Y-123554819D01*
X122738095Y-123554819D02*
X122738095Y-124364342D01*
X122738095Y-124364342D02*
X122785714Y-124459580D01*
X122785714Y-124459580D02*
X122833333Y-124507200D01*
X122833333Y-124507200D02*
X122928571Y-124554819D01*
X122928571Y-124554819D02*
X123119047Y-124554819D01*
X123119047Y-124554819D02*
X123214285Y-124507200D01*
X123214285Y-124507200D02*
X123261904Y-124459580D01*
X123261904Y-124459580D02*
X123309523Y-124364342D01*
X123309523Y-124364342D02*
X123309523Y-123554819D01*
X123642857Y-123554819D02*
X124214285Y-123554819D01*
X123928571Y-124554819D02*
X123928571Y-123554819D01*
X124547619Y-124173866D02*
X125309524Y-124173866D01*
X105857143Y-124554819D02*
X105857143Y-123554819D01*
X106333333Y-124554819D02*
X106333333Y-123554819D01*
X106333333Y-123554819D02*
X106904761Y-124554819D01*
X106904761Y-124554819D02*
X106904761Y-123554819D01*
X107380952Y-124173866D02*
X108142857Y-124173866D01*
X123952381Y-121531009D02*
X124095238Y-121578628D01*
X124095238Y-121578628D02*
X124142857Y-121626247D01*
X124142857Y-121626247D02*
X124190476Y-121721485D01*
X124190476Y-121721485D02*
X124190476Y-121864342D01*
X124190476Y-121864342D02*
X124142857Y-121959580D01*
X124142857Y-121959580D02*
X124095238Y-122007200D01*
X124095238Y-122007200D02*
X124000000Y-122054819D01*
X124000000Y-122054819D02*
X123619048Y-122054819D01*
X123619048Y-122054819D02*
X123619048Y-121054819D01*
X123619048Y-121054819D02*
X123952381Y-121054819D01*
X123952381Y-121054819D02*
X124047619Y-121102438D01*
X124047619Y-121102438D02*
X124095238Y-121150057D01*
X124095238Y-121150057D02*
X124142857Y-121245295D01*
X124142857Y-121245295D02*
X124142857Y-121340533D01*
X124142857Y-121340533D02*
X124095238Y-121435771D01*
X124095238Y-121435771D02*
X124047619Y-121483390D01*
X124047619Y-121483390D02*
X123952381Y-121531009D01*
X123952381Y-121531009D02*
X123619048Y-121531009D01*
X124619048Y-121673866D02*
X125380953Y-121673866D01*
D13*
X190476733Y-78246856D02*
X189932448Y-78246856D01*
X190585590Y-77920285D02*
X190204590Y-79063285D01*
X190204590Y-79063285D02*
X189823590Y-77920285D01*
X188789448Y-78029142D02*
X188843876Y-77974714D01*
X188843876Y-77974714D02*
X189007162Y-77920285D01*
X189007162Y-77920285D02*
X189116019Y-77920285D01*
X189116019Y-77920285D02*
X189279305Y-77974714D01*
X189279305Y-77974714D02*
X189388162Y-78083571D01*
X189388162Y-78083571D02*
X189442591Y-78192428D01*
X189442591Y-78192428D02*
X189497019Y-78410142D01*
X189497019Y-78410142D02*
X189497019Y-78573428D01*
X189497019Y-78573428D02*
X189442591Y-78791142D01*
X189442591Y-78791142D02*
X189388162Y-78899999D01*
X189388162Y-78899999D02*
X189279305Y-79008856D01*
X189279305Y-79008856D02*
X189116019Y-79063285D01*
X189116019Y-79063285D02*
X189007162Y-79063285D01*
X189007162Y-79063285D02*
X188843876Y-79008856D01*
X188843876Y-79008856D02*
X188789448Y-78954428D01*
X187646448Y-78029142D02*
X187700876Y-77974714D01*
X187700876Y-77974714D02*
X187864162Y-77920285D01*
X187864162Y-77920285D02*
X187973019Y-77920285D01*
X187973019Y-77920285D02*
X188136305Y-77974714D01*
X188136305Y-77974714D02*
X188245162Y-78083571D01*
X188245162Y-78083571D02*
X188299591Y-78192428D01*
X188299591Y-78192428D02*
X188354019Y-78410142D01*
X188354019Y-78410142D02*
X188354019Y-78573428D01*
X188354019Y-78573428D02*
X188299591Y-78791142D01*
X188299591Y-78791142D02*
X188245162Y-78899999D01*
X188245162Y-78899999D02*
X188136305Y-79008856D01*
X188136305Y-79008856D02*
X187973019Y-79063285D01*
X187973019Y-79063285D02*
X187864162Y-79063285D01*
X187864162Y-79063285D02*
X187700876Y-79008856D01*
X187700876Y-79008856D02*
X187646448Y-78954428D01*
X186557876Y-77920285D02*
X187211019Y-77920285D01*
X186884448Y-77920285D02*
X186884448Y-79063285D01*
X186884448Y-79063285D02*
X186993305Y-78899999D01*
X186993305Y-78899999D02*
X187102162Y-78791142D01*
X187102162Y-78791142D02*
X187211019Y-78736714D01*
D11*
%TO.C,R4*%
X140779690Y-75648337D02*
X139509690Y-75648337D01*
X139509690Y-50248337D01*
X140779690Y-50248337D01*
X140779690Y-75648337D01*
G36*
X140779690Y-75648337D02*
G01*
X139509690Y-75648337D01*
X139509690Y-50248337D01*
X140779690Y-50248337D01*
X140779690Y-75648337D01*
G37*
D14*
X142540000Y-47760000D02*
X142540000Y-78240000D01*
X137460000Y-47760000D02*
X142540000Y-47760000D01*
X142540000Y-78240000D02*
X137460000Y-78240000D01*
X137460000Y-78240000D02*
X137460000Y-47760000D01*
%TO.C,R3*%
X132040000Y-73260000D02*
X132040000Y-103740000D01*
X126960000Y-73260000D02*
X132040000Y-73260000D01*
X132040000Y-103740000D02*
X126960000Y-103740000D01*
X126960000Y-103740000D02*
X126960000Y-73260000D01*
D11*
X129990310Y-101251663D02*
X128720310Y-101251663D01*
X128720310Y-75851663D01*
X129990310Y-75851663D01*
X129990310Y-101251663D01*
G36*
X129990310Y-101251663D02*
G01*
X128720310Y-101251663D01*
X128720310Y-75851663D01*
X129990310Y-75851663D01*
X129990310Y-101251663D01*
G37*
D14*
%TO.C,R1*%
X142532000Y-92245000D02*
X142532000Y-108755000D01*
X138468000Y-92245000D02*
X142532000Y-92245000D01*
X142532000Y-108755000D02*
X138468000Y-108755000D01*
X138468000Y-108755000D02*
X138468000Y-92245000D01*
D11*
X141135000Y-105580000D02*
X139865000Y-105580000D01*
X139865000Y-96055000D01*
X141135000Y-96055000D01*
X141135000Y-105580000D01*
G36*
X141135000Y-105580000D02*
G01*
X139865000Y-105580000D01*
X139865000Y-96055000D01*
X141135000Y-96055000D01*
X141135000Y-105580000D01*
G37*
%TO.C,R2*%
X136154500Y-104583000D02*
X134884500Y-104583000D01*
X134884500Y-98934000D01*
X136154500Y-98934000D01*
X136154500Y-104583000D01*
G36*
X136154500Y-104583000D02*
G01*
X134884500Y-104583000D01*
X134884500Y-98934000D01*
X136154500Y-98934000D01*
X136154500Y-104583000D01*
G37*
D14*
X133487500Y-108393000D02*
X133487500Y-95853000D01*
X137551500Y-108393000D02*
X133487500Y-108393000D01*
X133487500Y-95853000D02*
X137551500Y-95853000D01*
X137551500Y-95853000D02*
X137551500Y-108393000D01*
%TO.C,U1*%
D11*
X161990000Y-103340187D02*
X154370000Y-103340187D01*
X154370000Y-107594366D01*
X161990000Y-107594366D01*
X161990000Y-103340187D01*
D15*
X172150000Y-55080187D02*
X143850000Y-55080187D01*
X143850000Y-106580187D01*
X172150000Y-106580187D01*
X172150000Y-55080187D01*
D14*
%TO.C,SW1*%
X179990000Y-104240000D02*
X188810000Y-104240000D01*
X179990000Y-104550000D02*
X179990000Y-104240000D01*
X179990000Y-108760000D02*
X179990000Y-108450000D01*
X181900000Y-103540000D02*
X182400000Y-104040000D01*
X182400000Y-104040000D02*
X182900000Y-103540000D01*
X182900000Y-103540000D02*
X181900000Y-103540000D01*
X188810000Y-104240000D02*
X188810000Y-104550000D01*
X188810000Y-108760000D02*
X179990000Y-108760000D01*
X188810000Y-108760000D02*
X188810000Y-108450000D01*
%TO.C,BC1*%
D11*
X178500000Y-102500000D02*
X191000000Y-102500000D01*
X191000000Y-80500000D01*
X178500000Y-80500000D01*
X178500000Y-102500000D01*
%TO.C,BT1*%
X135000000Y-111750000D02*
X191000000Y-111750000D01*
X191000000Y-146250000D01*
X135000000Y-146250000D01*
X135000000Y-111750000D01*
%TO.C,EMG_v2*%
X125700500Y-77600000D02*
X100300500Y-77600000D01*
X100300500Y-52200000D01*
X125700500Y-52200000D01*
X125700500Y-77600000D01*
%TO.C,EMG_v1*%
X125700500Y-105100000D02*
X100300500Y-105100000D01*
X100300500Y-79700000D01*
X125700500Y-79700000D01*
X125700500Y-105100000D01*
D14*
%TO.C,TP4056_1*%
X129500000Y-108400000D02*
X129500000Y-125600000D01*
X101500000Y-125600000D02*
X129500000Y-125600000D01*
X101500000Y-108400000D02*
X129500000Y-108400000D01*
X101500000Y-108400000D02*
X101500000Y-125600000D01*
D16*
%TO.C,ACC1*%
X190770000Y-77523400D02*
X190770000Y-55523400D01*
X190770000Y-55523400D02*
X174620000Y-55523400D01*
D13*
X182142000Y-67969400D02*
X182142000Y-63905400D01*
X182142000Y-63905400D02*
X178078000Y-63905400D01*
D17*
X181507000Y-64413400D02*
X181380000Y-65048400D01*
X181507000Y-64413400D02*
X180872000Y-64540400D01*
X180237000Y-67588400D02*
X180618000Y-67080400D01*
X180237000Y-65683400D02*
X181507000Y-64413400D01*
X180237000Y-65683400D02*
X180237000Y-67588400D01*
X180237000Y-65683400D02*
X178459000Y-65683400D01*
X179856000Y-67080400D02*
X180237000Y-67588400D01*
X178967000Y-66064400D02*
X178459000Y-65683400D01*
X178459000Y-65683400D02*
X178967000Y-65302400D01*
D13*
X178078000Y-67969400D02*
X182142000Y-67969400D01*
X178078000Y-63905400D02*
X178078000Y-67969400D01*
D16*
X174620000Y-77523400D02*
X190770000Y-77523400D01*
X174620000Y-55523400D02*
X174620000Y-77523400D01*
D17*
X180416603Y-65683400D02*
G75*
G02*
X180057397Y-65683400I-179603J0D01*
G01*
X180057397Y-65683400D02*
G75*
G02*
X180416603Y-65683400I179603J0D01*
G01*
D13*
X178668430Y-74319400D02*
G75*
G02*
X175455570Y-74319400I-1606430J0D01*
G01*
X175455570Y-74319400D02*
G75*
G02*
X178668430Y-74319400I1606430J0D01*
G01*
X178668430Y-57555400D02*
G75*
G02*
X175455570Y-57555400I-1606430J0D01*
G01*
X175455570Y-57555400D02*
G75*
G02*
X178668430Y-57555400I1606430J0D01*
G01*
%TD*%
M02*
