%TF.GenerationSoftware,KiCad,Pcbnew,9.0.1*%
%TF.CreationDate,2025-05-14T15:59:24+08:00*%
%TF.ProjectId,emgPCB,656d6750-4342-42e6-9b69-6361645f7063,rev?*%
%TF.SameCoordinates,Original*%
%TF.FileFunction,Soldermask,Top*%
%TF.FilePolarity,Negative*%
%FSLAX46Y46*%
G04 Gerber Fmt 4.6, Leading zero omitted, Abs format (unit mm)*
G04 Created by KiCad (PCBNEW 9.0.1) date 2025-05-14 15:59:24*
%MOMM*%
%LPD*%
G01*
G04 APERTURE LIST*
G04 Aperture macros list*
%AMRoundRect*
0 Rectangle with rounded corners*
0 $1 Rounding radius*
0 $2 $3 $4 $5 $6 $7 $8 $9 X,Y pos of 4 corners*
0 Add a 4 corners polygon primitive as box body*
4,1,4,$2,$3,$4,$5,$6,$7,$8,$9,$2,$3,0*
0 Add four circle primitives for the rounded corners*
1,1,$1+$1,$2,$3*
1,1,$1+$1,$4,$5*
1,1,$1+$1,$6,$7*
1,1,$1+$1,$8,$9*
0 Add four rect primitives between the rounded corners*
20,1,$1+$1,$2,$3,$4,$5,0*
20,1,$1+$1,$4,$5,$6,$7,0*
20,1,$1+$1,$6,$7,$8,$9,0*
20,1,$1+$1,$8,$9,$2,$3,0*%
G04 Aperture macros list end*
%ADD10RoundRect,0.799900X0.150100X-0.700100X0.150100X0.700100X-0.150100X0.700100X-0.150100X-0.700100X0*%
%ADD11RoundRect,0.799900X-0.150100X0.700100X-0.150100X-0.700100X0.150100X-0.700100X0.150100X0.700100X0*%
%ADD12O,1.900000X1.524000*%
%ADD13O,2.200000X3.500000*%
%ADD14R,1.500000X2.500000*%
%ADD15O,1.500000X2.500000*%
%ADD16O,2.905000X1.905000*%
%ADD17C,1.905000*%
%ADD18O,2.952500X1.905000*%
%ADD19C,2.000000*%
%ADD20O,3.203200X1.703200*%
G04 APERTURE END LIST*
D10*
%TO.C,R4*%
X140000000Y-50300000D03*
X140000000Y-75700000D03*
%TD*%
D11*
%TO.C,R3*%
X129500000Y-75800000D03*
X129500000Y-101200000D03*
%TD*%
%TO.C,R1*%
X140500000Y-94785000D03*
X140500000Y-106723000D03*
%TD*%
D10*
%TO.C,R2*%
X135519500Y-105853000D03*
X135519500Y-97853000D03*
%TD*%
D12*
%TO.C,U1*%
X145252460Y-98500000D03*
X170652460Y-98500000D03*
X145252460Y-95960000D03*
X170652460Y-95960000D03*
X145252460Y-93420000D03*
X170652460Y-93420000D03*
X145252460Y-90880000D03*
X170652460Y-90880000D03*
X145252460Y-88340000D03*
X170652460Y-88340000D03*
X145252460Y-85800000D03*
X170652460Y-85800000D03*
X145252460Y-83260000D03*
X170652460Y-83260000D03*
X145252460Y-80720000D03*
X170652460Y-80720000D03*
X145252460Y-78180000D03*
X170652460Y-78180000D03*
X145252460Y-75640000D03*
X170652460Y-75640000D03*
X145252460Y-73100000D03*
X170652460Y-73100000D03*
X145252460Y-70560000D03*
X170652460Y-70560000D03*
X145252460Y-68020000D03*
X170652460Y-68020000D03*
X145252460Y-65480000D03*
X170652460Y-65480000D03*
X145252460Y-62940000D03*
X170652460Y-62940000D03*
%TD*%
D13*
%TO.C,SW1*%
X180300000Y-106500000D03*
X188500000Y-106500000D03*
D14*
X182400000Y-106500000D03*
D15*
X184400000Y-106500000D03*
X186400000Y-106500000D03*
%TD*%
D16*
%TO.C,BC1*%
X180500000Y-101000000D03*
X189000000Y-101000000D03*
D17*
X179500000Y-81500000D03*
X190000000Y-81500000D03*
D18*
X184523750Y-81500000D03*
%TD*%
D17*
%TO.C,EMG_v2*%
X124200500Y-60759800D03*
X124200500Y-63299800D03*
X124200500Y-70919800D03*
X124200500Y-73459800D03*
X124200500Y-75999800D03*
%TD*%
%TO.C,EMG_v1*%
X124200500Y-88259800D03*
X124200500Y-90799800D03*
X124200500Y-98419800D03*
X124200500Y-100959800D03*
X124200500Y-103499800D03*
%TD*%
D19*
%TO.C,TP4056_1*%
X127000000Y-121460000D03*
X127000000Y-112540000D03*
X127000000Y-124000000D03*
X127000000Y-110000000D03*
X104000000Y-124000000D03*
X104000000Y-110000000D03*
%TD*%
D20*
%TO.C,ACC1*%
X189000000Y-60127400D03*
X189000000Y-72827400D03*
X189000000Y-57587400D03*
X189000000Y-70287400D03*
X189000000Y-67747400D03*
X189000000Y-75367400D03*
X189000000Y-62667400D03*
X189000000Y-65207400D03*
%TD*%
M02*
